<svg width="390" height="272" viewBox="0 0 390 272" fill="none" xmlns="http://www.w3.org/2000/svg">
<mask id="path-1-outside-1_50_5365" maskUnits="userSpaceOnUse" x="6" y="53" width="131" height="151" fill="black">
<rect fill="white" x="6" y="53" width="131" height="151"/>
<path d="M134.684 167.504H114.859V201.391H79.0195V167.504H8.60938V139.965L76.6758 55.5898H114.859V140.941H134.684V167.504ZM79.0195 140.941V88.4023L36.7344 140.941H79.0195Z"/>
</mask>
<path d="M134.684 167.504V169.504H136.684V167.504H134.684ZM114.859 167.504V165.504H112.859V167.504H114.859ZM114.859 201.391V203.391H116.859V201.391H114.859ZM79.0195 201.391H77.0195V203.391H79.0195V201.391ZM79.0195 167.504H81.0195V165.504H79.0195V167.504ZM8.60938 167.504H6.60938V169.504H8.60938V167.504ZM8.60938 139.965L7.05275 138.709L6.60938 139.259V139.965H8.60938ZM76.6758 55.5898V53.5898H75.7196L75.1192 54.3341L76.6758 55.5898ZM114.859 55.5898H116.859V53.5898H114.859V55.5898ZM114.859 140.941H112.859V142.941H114.859V140.941ZM134.684 140.941H136.684V138.941H134.684V140.941ZM79.0195 140.941V142.941H81.0195V140.941H79.0195ZM79.0195 88.4023H81.0195V82.7275L77.4615 87.1484L79.0195 88.4023ZM36.7344 140.941L35.1763 139.687L32.5574 142.941H36.7344V140.941ZM134.684 165.504H114.859V169.504H134.684V165.504ZM112.859 167.504V201.391H116.859V167.504H112.859ZM114.859 199.391H79.0195V203.391H114.859V199.391ZM81.0195 201.391V167.504H77.0195V201.391H81.0195ZM79.0195 165.504H8.60938V169.504H79.0195V165.504ZM10.6094 167.504V139.965H6.60938V167.504H10.6094ZM10.166 141.221L78.2324 56.8456L75.1192 54.3341L7.05275 138.709L10.166 141.221ZM76.6758 57.5898H114.859V53.5898H76.6758V57.5898ZM112.859 55.5898V140.941H116.859V55.5898H112.859ZM114.859 142.941H134.684V138.941H114.859V142.941ZM132.684 140.941V167.504H136.684V140.941H132.684ZM81.0195 140.941V88.4023H77.0195V140.941H81.0195ZM77.4615 87.1484L35.1763 139.687L38.2924 142.195L80.5776 89.6563L77.4615 87.1484ZM36.7344 142.941H79.0195V138.941H36.7344V142.941Z" fill="white" mask="url(#path-1-outside-1_50_5365)"/>
<mask id="path-3-outside-2_50_5365" maskUnits="userSpaceOnUse" x="95.0754" y="41.323" width="199.692" height="199.08" fill="black">
<rect fill="white" x="95.0754" y="41.323" width="199.692" height="199.08"/>
<path d="M237.061 183.795C228.29 192.331 219.656 199.189 211.161 204.369C202.712 209.503 194.637 212.547 186.935 213.502C179.05 214.454 171.307 213.36 163.707 210.218C156.153 207.031 148.517 201.472 140.798 193.541C133.214 185.749 127.91 177.966 124.885 170.19C121.859 162.415 120.975 154.599 122.233 146.743C123.444 138.841 126.684 130.828 131.95 122.704C137.263 114.535 144.305 106.182 153.076 97.6449C162.127 88.8357 170.761 81.9776 178.976 77.0705C187.192 72.1634 195.289 69.1883 203.268 68.1454C211.2 67.1478 218.988 68.2892 226.633 71.5694C234.277 74.8496 241.823 80.3154 249.269 87.9668C257.034 95.9447 262.361 103.798 265.249 111.525C268.183 119.208 268.998 127.045 267.693 135.039C266.435 142.895 263.197 150.862 257.977 158.94C252.804 166.973 245.832 175.258 237.061 183.795ZM210.701 156.712C223.298 144.451 231.052 134.497 233.964 126.847C236.923 119.153 235.61 112.436 230.024 106.698C224.439 100.959 217.761 99.4645 209.989 102.214C202.264 104.918 192.056 112.445 179.366 124.796C167.002 136.829 159.317 146.762 156.311 154.594C153.304 162.426 154.548 169.165 160.043 174.81C165.537 180.455 172.239 181.881 180.15 179.088C188.061 176.294 198.244 168.835 210.701 156.712Z"/>
</mask>
<path d="M211.161 204.369L212.2 206.078L212.202 206.077L211.161 204.369ZM186.935 213.502L187.175 215.488L187.181 215.487L186.935 213.502ZM163.707 210.218L162.929 212.061L162.936 212.064L162.943 212.066L163.707 210.218ZM122.233 146.743L124.207 147.059L124.209 147.046L122.233 146.743ZM131.95 122.704L130.274 121.613L130.272 121.616L131.95 122.704ZM203.268 68.1454L203.018 66.161L203.009 66.1622L203.268 68.1454ZM265.249 111.525L263.375 112.225L263.378 112.232L263.38 112.239L265.249 111.525ZM267.693 135.039L265.719 134.716L265.718 134.723L267.693 135.039ZM257.977 158.94L256.297 157.855L256.295 157.857L257.977 158.94ZM233.964 126.847L232.098 126.13L232.095 126.136L233.964 126.847ZM209.989 102.214L210.649 104.101L210.656 104.099L209.989 102.214ZM235.666 182.361C226.978 190.816 218.462 197.575 210.12 202.661L212.202 206.077C220.851 200.804 229.601 193.846 238.456 185.228L235.666 182.361ZM210.122 202.66C201.851 207.686 194.044 210.606 186.689 211.517L187.181 215.487C195.229 214.489 203.573 211.32 212.2 206.078L210.122 202.66ZM186.696 211.517C179.163 212.426 171.765 211.385 164.471 208.37L162.943 212.066C170.848 215.334 178.936 216.483 187.175 215.488L186.696 211.517ZM164.484 208.375C157.247 205.322 149.825 199.949 142.231 192.146L139.364 194.936C147.209 202.995 155.06 208.74 162.929 212.061L164.484 208.375ZM142.231 192.146C134.781 184.491 129.652 176.928 126.749 169.465L123.021 170.916C126.168 179.004 131.648 187.008 139.364 194.936L142.231 192.146ZM126.749 169.465C123.845 162.004 123.009 154.547 124.207 147.059L120.258 146.427C118.941 154.651 119.873 162.826 123.021 170.916L126.749 169.465ZM124.209 147.046C125.37 139.476 128.484 131.727 133.628 123.792L130.272 121.616C124.883 129.928 121.519 138.205 120.256 146.44L124.209 147.046ZM133.627 123.794C138.841 115.776 145.781 107.536 154.471 99.0782L151.681 96.2117C142.83 104.827 135.685 113.293 130.274 121.613L133.627 123.794ZM154.471 99.0782C163.444 90.3453 171.955 83.594 180.002 78.7875L177.95 75.3535C169.567 80.3612 160.811 87.3262 151.681 96.2117L154.471 99.0782ZM180.002 78.7875C188.026 73.9945 195.865 71.13 203.527 70.1285L203.009 66.1622C194.712 67.2467 186.357 70.3323 177.95 75.3535L180.002 78.7875ZM203.517 70.1297C211.082 69.1784 218.513 70.2614 225.844 73.4073L227.421 69.7315C219.464 66.3169 211.318 65.1172 203.018 66.161L203.517 70.1297ZM225.844 73.4073C233.188 76.5589 240.523 81.8478 247.836 89.3617L250.703 86.5719C243.122 78.7831 235.366 73.1404 227.421 69.7315L225.844 73.4073ZM247.836 89.3617C255.472 97.2066 260.612 104.831 263.375 112.225L267.122 110.825C264.109 102.764 258.597 94.6829 250.703 86.5719L247.836 89.3617ZM263.38 112.239C266.191 119.597 266.966 127.077 265.719 134.716L269.666 135.361C271.03 127.014 270.176 118.819 267.117 110.812L263.38 112.239ZM265.718 134.723C264.512 142.253 261.397 149.962 256.297 157.855L259.657 160.025C264.996 151.762 268.358 143.536 269.668 135.355L265.718 134.723ZM256.295 157.857C251.223 165.733 244.357 173.902 235.666 182.361L238.456 185.228C247.306 176.613 254.384 168.213 259.658 160.023L256.295 157.857ZM212.096 158.145C224.716 145.862 232.754 135.648 235.833 127.559L232.095 126.136C229.351 133.345 221.88 143.04 209.306 155.278L212.096 158.145ZM235.831 127.565C237.417 123.439 237.903 119.452 237.161 115.655C236.418 111.854 234.474 108.402 231.458 105.303L228.591 108.093C231.16 110.732 232.665 113.507 233.235 116.423C233.806 119.343 233.47 122.561 232.098 126.13L235.831 127.565ZM231.458 105.303C228.441 102.203 225.043 100.167 221.263 99.3211C217.488 98.4762 213.489 98.8541 209.322 100.328L210.656 104.099C214.26 102.824 217.486 102.575 220.39 103.225C223.289 103.873 226.023 105.453 228.591 108.093L231.458 105.303ZM209.328 100.326C201.157 103.186 190.682 110.991 177.971 123.363L180.761 126.229C193.43 113.899 203.37 106.649 210.649 104.101L209.328 100.326ZM177.971 123.363C165.574 135.429 157.615 145.615 154.444 153.877L158.178 155.311C161.019 147.908 168.431 138.23 180.761 126.229L177.971 123.363ZM154.444 153.877C152.838 158.06 152.32 162.08 153.022 165.885C153.726 169.699 155.629 173.142 158.609 176.205L161.476 173.415C158.962 170.832 157.495 168.083 156.956 165.159C156.414 162.225 156.777 158.96 158.178 155.311L154.444 153.877ZM158.609 176.205C161.59 179.267 164.98 181.262 168.774 182.069C172.559 182.875 176.591 182.465 180.816 180.973L179.484 177.202C175.798 178.503 172.524 178.778 169.606 178.157C166.698 177.538 163.989 175.998 161.476 173.415L158.609 176.205ZM180.816 180.973C189.162 178.026 199.608 170.3 212.096 158.145L209.306 155.278C196.881 167.371 186.959 174.562 179.484 177.202L180.816 180.973Z" fill="white" mask="url(#path-3-outside-2_50_5365)"/>
<mask id="path-5-outside-3_50_5365" maskUnits="userSpaceOnUse" x="252.875" y="53" width="131" height="151" fill="black">
<rect fill="white" x="252.875" y="53" width="131" height="151"/>
<path d="M381.559 167.504H361.735V201.391H325.895V167.504H255.485V139.965L323.551 55.5898H361.735V140.941H381.559V167.504ZM325.895 140.941V88.4023L283.61 140.941H325.895Z"/>
</mask>
<path d="M381.559 167.504V169.504H383.559V167.504H381.559ZM361.735 167.504V165.504H359.735V167.504H361.735ZM361.735 201.391V203.391H363.735V201.391H361.735ZM325.895 201.391H323.895V203.391H325.895V201.391ZM325.895 167.504H327.895V165.504H325.895V167.504ZM255.485 167.504H253.485V169.504H255.485V167.504ZM255.485 139.965L253.928 138.709L253.485 139.259V139.965H255.485ZM323.551 55.5898V53.5898H322.595L321.995 54.3341L323.551 55.5898ZM361.735 55.5898H363.735V53.5898H361.735V55.5898ZM361.735 140.941H359.735V142.941H361.735V140.941ZM381.559 140.941H383.559V138.941H381.559V140.941ZM325.895 140.941V142.941H327.895V140.941H325.895ZM325.895 88.4023H327.895V82.7275L324.337 87.1484L325.895 88.4023ZM283.61 140.941L282.052 139.687L279.433 142.941H283.61V140.941ZM381.559 165.504H361.735V169.504H381.559V165.504ZM359.735 167.504V201.391H363.735V167.504H359.735ZM361.735 199.391H325.895V203.391H361.735V199.391ZM327.895 201.391V167.504H323.895V201.391H327.895ZM325.895 165.504H255.485V169.504H325.895V165.504ZM257.485 167.504V139.965H253.485V167.504H257.485ZM257.041 141.221L325.108 56.8456L321.995 54.3341L253.928 138.709L257.041 141.221ZM323.551 57.5898H361.735V53.5898H323.551V57.5898ZM359.735 55.5898V140.941H363.735V55.5898H359.735ZM361.735 142.941H381.559V138.941H361.735V142.941ZM379.559 140.941V167.504H383.559V140.941H379.559ZM327.895 140.941V88.4023H323.895V140.941H327.895ZM324.337 87.1484L282.052 139.687L285.168 142.195L327.453 89.6563L324.337 87.1484ZM283.61 142.941H325.895V138.941H283.61V142.941Z" fill="white" mask="url(#path-5-outside-3_50_5365)"/>
</svg>
