<svg width="341" height="158" viewBox="0 0 341 158" fill="none" xmlns="http://www.w3.org/2000/svg">
<path fill-rule="evenodd" clip-rule="evenodd" d="M297.749 157.238C296.673 156.93 296.519 154.776 297.288 154.006C298.364 153.852 299.132 154.006 299.594 154.468C299.901 156.161 299.286 157.084 297.749 157.238Z" fill="#FFB32C"/>
<path fill-rule="evenodd" clip-rule="evenodd" d="M306.051 152.159C290.062 153.698 277.148 138.615 278.378 122.146C278.839 115.066 282.99 109.217 288.524 107.832C272.535 123.531 287.448 159.701 313.43 148.465C312.2 151.851 308.972 151.851 306.051 152.159Z" fill="#FFB32C"/>
<path fill-rule="evenodd" clip-rule="evenodd" d="M336.184 138.769C335.108 137.383 336.03 135.229 337.567 135.075C337.721 135.382 338.029 135.536 338.49 135.536C339.105 136.922 338.644 137.537 338.029 138.769C337.414 138.769 336.799 138.769 336.184 138.769Z" fill="#FFB32C"/>
<path fill-rule="evenodd" clip-rule="evenodd" d="M312.662 137.845C312.662 137.229 312.662 136.614 312.662 135.998C314.045 135.536 314.045 135.536 315.429 135.998C315.429 136.614 315.429 137.229 315.429 137.845C314.814 138.461 313.123 138.461 312.662 137.845Z" fill="#FFB32C"/>
<path fill-rule="evenodd" clip-rule="evenodd" d="M316.813 135.537C318.043 135.383 318.811 135.69 318.658 136.922C318.043 136.922 318.043 137.537 317.274 137.384C317.12 136.768 316.505 136.46 316.813 135.537Z" fill="#FFB32C"/>
<path fill-rule="evenodd" clip-rule="evenodd" d="M274.227 132.15C268.077 129.995 273.612 139.23 274.227 132.15V132.15Z" fill="#FFB32C"/>
<path fill-rule="evenodd" clip-rule="evenodd" d="M301.9 125.686C302.515 123.223 308.203 119.529 311.124 119.683C315.737 119.991 317.735 126.147 316.659 131.688C309.894 137.383 300.055 133.535 301.9 125.686ZM312.201 123.377C304.821 121.838 302.361 129.072 307.127 132.15C306.051 129.841 305.897 124.608 309.894 124.762C311.893 124.762 314.814 127.994 311.739 130.303C315.429 131.688 313.584 124.916 312.201 123.377Z" fill="#FFB32C"/>
<path fill-rule="evenodd" clip-rule="evenodd" d="M337.106 126.609C332.033 113.065 326.498 99.8281 308.511 100.29C305.282 100.29 302.361 102.137 298.825 101.213C306.666 96.1342 321.579 99.0586 326.959 104.446C323.27 100.598 319.272 97.5194 313.123 97.0577C300.67 95.9803 291.599 103.984 283.605 108.14C291.138 93.9794 323.577 88.9001 330.803 106.754C329.266 107.216 328.804 104.138 328.036 105.369C332.494 110.294 338.336 118.914 337.106 126.609Z" fill="#FFB32C"/>
<path fill-rule="evenodd" clip-rule="evenodd" d="M339.413 116.913C338.183 115.989 338.336 114.142 340.335 114.142C340.796 114.604 340.95 115.373 340.796 116.451C340.181 116.451 339.72 116.759 339.413 116.913Z" fill="#FFB32C"/>
<path fill-rule="evenodd" clip-rule="evenodd" d="M334.8 111.372C334.954 109.832 335.262 108.293 337.106 108.601C337.721 109.217 337.721 111.218 337.106 111.833C336.03 111.987 335.262 111.833 334.8 111.372Z" fill="#FFB32C"/>
<path fill-rule="evenodd" clip-rule="evenodd" d="M311.124 153.083C317.274 151.236 324.807 148.311 326.806 143.848C322.347 146.464 316.659 147.85 309.741 148.004C315.583 144.925 324.192 144.617 326.806 138.307C324.961 139.384 324.5 137.999 323.577 136.922C319.426 143.232 304.821 144.771 297.749 140.154C303.591 147.542 316.659 143.848 323.116 139.692C312.508 153.698 289.293 143.078 287.602 128.148C288.217 138.615 294.52 143.386 301.9 147.08C296.826 147.388 292.368 143.848 290.369 141.539C278.378 128.148 285.142 108.909 303.284 105.061C324.961 100.444 338.49 121.53 330.957 137.845C332.494 146.926 321.117 153.698 311.124 153.083ZM325.115 135.075C325.73 135.844 327.575 134.459 327.882 136.46C328.343 136.306 328.651 135.998 328.804 135.536C328.958 133.997 327.421 134.151 326.96 133.228C329.112 127.687 326.345 117.067 320.964 114.758C325.576 118.298 328.958 128.302 325.115 135.075ZM287.602 124.762C288.832 121.992 289.447 118.606 291.292 116.451C289.601 116.913 287.756 121.222 287.602 124.762ZM292.214 114.142C295.443 112.757 300.055 108.755 305.59 108.139C300.055 107.062 295.904 111.68 292.214 114.142ZM307.435 113.219C299.594 113.373 293.598 120.607 294.059 128.918C295.75 123.377 298.364 118.76 305.128 118.298C304.821 117.836 304.052 117.836 304.206 116.913C313.738 111.526 323.116 123.839 318.504 132.612C317.274 125.686 316.044 118.76 308.818 117.836C310.817 120.299 300.824 120.914 300.516 127.533C300.362 132.15 304.36 135.998 308.818 137.229C301.592 139.23 298.825 132.766 297.749 127.071C293.444 137.076 304.821 141.077 313.43 139.538C313.277 140 312.969 140.308 312.508 140.462C330.496 138.923 323.27 112.911 307.435 113.219ZM309.741 107.678C312.047 110.294 314.814 109.679 318.965 110.91C326.96 113.219 329.112 119.837 329.573 130.765C331.572 118.298 323.577 107.678 309.741 107.678Z" fill="#FFB32C"/>
<path fill-rule="evenodd" clip-rule="evenodd" d="M27.8682 144.687C26.9443 146.164 26.7596 148.381 23.6186 147.273C21.9557 145.056 24.3577 143.579 25.0967 142.286C-1.50924 127.511 3.8489 74.1356 39.3235 73.0274C54.2893 72.4734 69.0704 80.415 72.9504 92.9739C62.0494 87.2485 56.137 78.7528 41.3559 78.3834C21.2167 78.0141 8.83752 94.8208 9.9461 113.474C10.6852 127.696 23.2491 143.579 37.4759 146.719C65.9294 152.813 80.7105 123.632 76.6457 98.5146C86.4382 108.118 78.8629 129.727 71.1028 138.777C61.8646 149.304 42.4645 154.291 27.8682 144.687Z" fill="#FF5500"/>
<path fill-rule="evenodd" clip-rule="evenodd" d="M15.4889 142.102C15.4889 140.993 14.0108 141.363 14.565 139.701C16.967 138.592 18.2603 141.547 15.4889 142.102Z" fill="#FF5500"/>
<path fill-rule="evenodd" clip-rule="evenodd" d="M5.14219 133.975C4.21837 131.758 5.51171 129.357 8.28317 129.542C9.39175 131.943 8.46793 134.898 5.14219 133.975Z" fill="#FF5500"/>
<path fill-rule="evenodd" clip-rule="evenodd" d="M6.25075 126.033C5.32693 125.849 5.88122 124.556 5.88122 123.632C9.94602 120.677 9.94602 129.358 6.25075 126.033Z" fill="#FF5500"/>
<path fill-rule="evenodd" clip-rule="evenodd" d="M0.153586 98.3296C1.44693 98.699 1.44694 97.4062 3.10981 97.9602C6.25079 100.915 -1.13976 103.87 0.153586 98.3296Z" fill="#FF5500"/>
<path fill-rule="evenodd" clip-rule="evenodd" d="M37.2909 140.624C42.0948 139.885 49.6701 142.655 53.3653 139.331C26.9442 141.732 11.9783 112.551 25.4661 92.9737C14.0107 99.9919 15.1193 131.204 28.607 130.835C28.4223 135.268 31.3785 136.93 34.3347 139.7C30.0851 139.146 28.4223 136.191 24.9118 135.083C9.94592 120.862 11.7936 88.9106 32.6718 85.4015C38.2147 84.478 42.6491 86.1402 48.0072 86.3249C85.8837 88.5412 73.135 155.583 37.2909 140.624ZM41.3557 96.2981C21.0317 95.19 28.9766 128.988 45.4205 130.281C52.8111 130.835 56.1368 124.371 58.7235 118.092C55.3977 122.524 52.9958 127.326 46.7139 126.957C39.3233 126.587 29.5309 115.506 30.8242 107.564C31.748 101.285 38.3995 96.6675 49.1158 99.6226C50.4091 98.6991 44.4967 96.4828 41.3557 96.2981ZM47.4529 117.353C50.2244 114.582 47.2681 111.258 45.051 109.78C39.1386 110.889 41.7252 117.722 47.4529 117.353ZM38.5843 104.24C36.7366 105.163 35.628 106.641 34.3347 107.934C32.4871 118.646 41.7252 124.186 49.8548 122.709C40.8014 123.447 32.3023 113.844 38.5843 104.24ZM58.5387 104.424C55.7673 103.132 54.1044 100.915 50.7787 99.9919C55.3977 102.393 57.2454 107.195 59.093 111.997C59.093 113.29 58.1692 118.091 59.2778 116.614C60.2016 111.627 59.8321 107.564 58.5387 104.424ZM59.8321 94.0819C62.7883 97.9603 62.7883 103.686 63.3426 110.335C65.375 110.335 65.5597 109.78 67.4074 110.519C67.2226 103.132 63.5273 98.5144 59.8321 94.0819ZM60.2016 123.263C57.4301 128.065 52.2568 133.236 45.2358 132.497C41.7252 132.128 37.2909 128.434 33.7804 125.479C22.6946 116.06 23.8032 89.0953 43.9424 92.9737C44.1272 92.9737 44.3119 92.9737 44.4967 92.9737C47.2681 92.6044 40.8014 91.3115 38.3995 91.4962C35.628 91.6809 32.1175 92.9737 30.8242 93.8972C13.0869 105.348 26.3899 133.975 45.79 136.56C58.9082 138.407 64.6359 126.033 67.2226 113.474C62.234 114.398 62.234 119.938 60.2016 123.263Z" fill="#FF5500"/>
<path fill-rule="evenodd" clip-rule="evenodd" d="M178.763 6.02698C177.677 4.28994 177.46 1.68439 173.767 2.98717C171.812 5.59273 174.636 7.32977 175.505 8.84968C144.226 26.2201 150.525 88.9708 192.231 90.2735C209.825 90.9249 227.202 81.5883 231.764 66.8235C218.948 73.5545 211.997 83.5425 194.62 83.9768C170.943 84.411 156.39 64.6522 157.693 42.722C158.562 26.003 173.333 7.32977 190.058 3.63855C223.51 -3.52675 240.887 30.7798 236.108 60.3096C247.621 49.0188 238.715 23.6145 229.592 12.9752C218.731 0.598734 195.923 -5.26379 178.763 6.02698Z" fill="#FFF61B"/>
<path fill-rule="evenodd" clip-rule="evenodd" d="M164.21 9.06689C164.21 10.3697 162.472 9.93542 163.124 11.8896C165.947 13.1924 167.468 9.71829 164.21 9.06689Z" fill="#FFF61B"/>
<path fill-rule="evenodd" clip-rule="evenodd" d="M152.045 18.6207C150.959 21.2263 152.48 24.049 155.738 23.8318C157.041 21.0091 155.955 17.535 152.045 18.6207Z" fill="#FFF61B"/>
<path fill-rule="evenodd" clip-rule="evenodd" d="M153.349 27.9571C152.263 28.1742 152.914 29.6941 152.914 30.7797C157.693 34.2538 157.693 24.0487 153.349 27.9571Z" fill="#FFF61B"/>
<path fill-rule="evenodd" clip-rule="evenodd" d="M146.181 60.5268C147.701 60.0926 147.701 61.6125 149.656 60.9611C153.349 57.487 144.66 54.0129 146.181 60.5268Z" fill="#FFF61B"/>
<path fill-rule="evenodd" clip-rule="evenodd" d="M189.841 10.8038C195.489 11.6723 204.395 8.41535 208.739 12.3237C177.677 9.501 160.082 43.8076 175.939 66.8234C162.472 58.5724 163.775 21.8774 179.632 22.3117C179.415 17.1006 182.89 15.1464 186.366 11.8894C181.37 12.5408 179.415 16.0149 175.288 17.3177C157.693 34.0367 159.865 71.6003 184.411 75.7258C190.927 76.8114 196.14 74.8572 202.44 74.6401C246.969 72.0345 231.981 -6.78377 189.841 10.8038ZM194.62 62.9151C170.726 64.2178 180.066 24.483 199.399 22.9631C208.087 22.3117 211.997 29.9112 215.038 37.2937C211.128 32.0826 208.305 26.4372 200.919 26.8714C192.231 27.3057 180.718 40.3335 182.239 49.6701C183.325 57.0526 191.144 62.4808 203.743 59.0067C205.264 60.0924 198.313 62.6979 194.62 62.9151ZM201.788 38.1622C205.046 41.4192 201.571 45.3275 198.964 47.0645C192.013 45.7618 195.054 37.7279 201.788 38.1622ZM191.362 53.5785C189.189 52.4928 187.886 50.7558 186.366 49.2358C184.193 36.6423 195.054 30.1284 204.612 31.8654C193.968 30.9969 183.976 42.2877 191.362 53.5785ZM214.821 53.3613C211.563 54.8812 209.608 57.4868 205.698 58.5725C211.128 55.7498 213.301 50.1044 215.473 44.459C215.473 42.9391 214.387 37.2937 215.69 39.0307C216.776 44.8932 216.342 49.6701 214.821 53.3613ZM216.342 65.5206C219.817 60.9609 219.817 54.2299 220.469 46.4132C222.858 46.4132 223.075 47.0645 225.248 46.196C225.03 54.8812 220.686 60.3095 216.342 65.5206ZM216.776 31.214C213.518 25.5687 207.436 19.489 199.181 20.3575C195.054 20.7918 189.841 25.1344 185.714 28.6085C172.681 39.6821 173.984 71.3831 197.661 66.8234C197.878 66.8234 198.095 66.8234 198.313 66.8234C201.571 67.2577 193.968 68.7776 191.144 68.5604C187.886 68.3433 183.759 66.8234 182.239 65.7377C161.386 52.2757 177.025 18.6205 199.833 15.5806C215.256 13.4093 221.989 27.9571 225.03 42.7219C219.165 41.6363 219.165 35.1224 216.776 31.214Z" fill="#FFF61B"/>
</svg>
