<svg width="32" height="33" viewBox="0 0 32 33" fill="none" xmlns="http://www.w3.org/2000/svg">
<path d="M24.9999 8.5V21.5C24.9999 21.7652 24.8946 22.0196 24.7071 22.2071C24.5195 22.3946 24.2652 22.5 23.9999 22.5C23.7347 22.5 23.4804 22.3946 23.2928 22.2071C23.1053 22.0196 22.9999 21.7652 22.9999 21.5V10.9137L8.70745 25.2075C8.51981 25.3951 8.26531 25.5006 7.99995 25.5006C7.73458 25.5006 7.48009 25.3951 7.29245 25.2075C7.1048 25.0199 6.99939 24.7654 6.99939 24.5C6.99939 24.2346 7.1048 23.9801 7.29245 23.7925L21.5862 9.5H10.9999C10.7347 9.5 10.4804 9.39464 10.2928 9.20711C10.1053 9.01957 9.99995 8.76522 9.99995 8.5C9.99995 8.23478 10.1053 7.98043 10.2928 7.79289C10.4804 7.60536 10.7347 7.5 10.9999 7.5H23.9999C24.2652 7.5 24.5195 7.60536 24.7071 7.79289C24.8946 7.98043 24.9999 8.23478 24.9999 8.5Z" fill="white"/>
</svg>
