<svg width="20" height="20" viewBox="0 0 20 20" fill="none" xmlns="http://www.w3.org/2000/svg">
<path d="M19.7075 18.2926C19.8004 18.3855 19.8741 18.4958 19.9244 18.6172C19.9747 18.7386 20.0006 18.8687 20.0006 19.0001C20.0006 19.1315 19.9747 19.2616 19.9244 19.383C19.8741 19.5044 19.8004 19.6147 19.7075 19.7076C19.6146 19.8005 19.5043 19.8742 19.3829 19.9245C19.2615 19.9747 19.1314 20.0006 19 20.0006C18.8686 20.0006 18.7385 19.9747 18.6171 19.9245C18.4957 19.8742 18.3854 19.8005 18.2925 19.7076L10 11.4138L1.70751 19.7076C1.51987 19.8952 1.26537 20.0006 1.00001 20.0006C0.734643 20.0006 0.480147 19.8952 0.292507 19.7076C0.104866 19.5199 -0.000549311 19.2654 -0.000549316 19.0001C-0.000549322 18.7347 0.104866 18.4802 0.292507 18.2926L8.58626 10.0001L0.292507 1.70757C0.104866 1.51993 -0.000549316 1.26543 -0.000549316 1.00007C-0.000549316 0.734704 0.104866 0.480208 0.292507 0.292568C0.480147 0.104927 0.734643 -0.000488281 1.00001 -0.000488281C1.26537 -0.000488281 1.51987 0.104927 1.70751 0.292568L10 8.58632L18.2925 0.292568C18.4801 0.104927 18.7346 -0.000488286 19 -0.000488281C19.2654 -0.000488276 19.5199 0.104927 19.7075 0.292568C19.8951 0.480208 20.0006 0.734704 20.0006 1.00007C20.0006 1.26543 19.8951 1.51993 19.7075 1.70757L11.4138 10.0001L19.7075 18.2926Z" fill="white"/>
</svg>
