<svg width="370" height="330" viewBox="0 0 370 330" fill="none" xmlns="http://www.w3.org/2000/svg">
<path fill-rule="evenodd" clip-rule="evenodd" d="M229.472 0C235.201 1.63963 236.02 13.1171 231.928 17.2161C226.198 18.036 222.106 17.2162 219.651 14.7567C218.014 5.73871 221.288 0.819817 229.472 0Z" fill="#38CFFF"/>
<path fill-rule="evenodd" clip-rule="evenodd" d="M185.276 27.0542C270.395 18.856 339.144 99.1981 332.597 186.919C330.141 224.63 308.043 255.783 278.579 263.162C363.698 179.54 284.308 -13.1168 145.991 46.7298C152.538 28.6938 169.725 28.6938 185.276 27.0542Z" fill="#38CFFF"/>
<path fill-rule="evenodd" clip-rule="evenodd" d="M24.8603 98.3779C30.5894 105.756 25.6787 117.234 17.4942 118.054C16.6757 116.414 15.0389 115.594 12.5836 115.594C9.30977 108.216 11.765 104.936 15.0388 98.3779C18.3126 98.3779 21.5865 98.3779 24.8603 98.3779Z" fill="#38CFFF"/>
<path fill-rule="evenodd" clip-rule="evenodd" d="M150.083 103.297C150.083 106.576 150.083 109.855 150.083 113.135C142.717 115.594 142.717 115.594 135.351 113.135C135.351 109.855 135.351 106.576 135.351 103.297C138.624 100.018 147.627 100.018 150.083 103.297Z" fill="#38CFFF"/>
<path fill-rule="evenodd" clip-rule="evenodd" d="M127.985 115.594C121.437 116.414 117.345 114.774 118.163 108.216C121.437 108.216 121.437 104.936 125.529 105.756C126.348 109.035 129.622 110.675 127.985 115.594Z" fill="#38CFFF"/>
<path fill-rule="evenodd" clip-rule="evenodd" d="M354.695 133.63C357.968 95.9188 387.433 145.108 354.695 133.63Z" fill="#38CFFF"/>
<path fill-rule="evenodd" clip-rule="evenodd" d="M207.374 168.062C204.101 181.179 173.818 200.855 158.268 200.035C133.714 198.395 123.074 165.603 128.803 136.089C164.815 105.756 217.196 126.251 207.374 168.062ZM152.538 180.359C191.824 188.558 204.919 150.026 179.547 133.63C185.276 145.927 186.095 173.801 164.815 172.981C154.175 172.981 138.625 155.765 154.994 143.468C135.351 136.089 145.172 172.161 152.538 180.359Z" fill="#38CFFF"/>
<path fill-rule="evenodd" clip-rule="evenodd" d="M19.9495 163.144C46.9582 235.287 76.4223 305.792 172.181 303.332C189.368 303.332 204.919 293.495 223.743 298.413C182.002 325.467 102.613 309.891 73.9671 281.197C93.6098 301.693 114.889 318.089 147.627 320.548C213.922 326.287 262.21 283.657 304.769 261.522C264.665 336.945 91.9729 363.999 53.5059 268.9C61.6903 266.441 64.1456 282.837 68.2378 276.278C44.5028 250.044 13.4019 204.134 19.9495 163.144Z" fill="#38CFFF"/>
<path fill-rule="evenodd" clip-rule="evenodd" d="M7.67293 214.792C14.2205 219.711 13.402 229.549 2.76219 229.549C0.306847 227.09 -0.5115 222.991 0.306947 217.252C3.58074 217.252 6.03603 215.612 7.67293 214.792Z" fill="#38CFFF"/>
<path fill-rule="evenodd" clip-rule="evenodd" d="M32.2262 244.305C31.4078 252.503 29.7709 260.701 19.9495 259.062C16.6757 255.782 16.6757 245.125 19.9495 241.846C25.6786 241.026 29.7709 241.846 32.2262 244.305Z" fill="#38CFFF"/>
<path fill-rule="evenodd" clip-rule="evenodd" d="M158.267 22.1352C125.53 31.973 85.4255 47.5495 74.7857 71.3242C98.5207 57.3873 128.803 50.009 165.633 49.1891C134.532 65.5855 88.6993 67.2251 74.7857 100.838C84.6071 95.0989 87.0625 102.477 91.9732 108.216C114.071 74.6035 191.824 66.4053 229.472 90.9998C198.371 51.6486 128.803 71.3242 94.4285 93.4593C150.901 18.8559 274.487 75.4233 283.49 154.946C280.216 99.198 246.66 73.7836 207.374 54.108C234.383 52.4684 258.118 71.3242 268.758 83.6215C332.597 154.946 296.585 257.423 200.008 277.918C84.6071 302.513 12.5837 190.198 52.6877 103.297C44.5032 54.9278 105.068 18.8559 158.267 22.1352ZM83.7887 118.054C80.5149 113.955 70.6935 121.333 69.0566 110.675C66.6013 111.495 64.9643 113.135 64.1459 115.594C63.3274 123.792 71.512 122.973 73.9673 127.892C62.5091 157.405 77.2411 213.972 105.887 226.27C81.3333 207.414 63.3275 154.126 83.7887 118.054ZM283.49 172.982C276.942 187.738 273.669 205.774 263.847 217.252C272.85 214.792 282.671 191.837 283.49 172.982ZM258.936 229.549C241.749 236.927 217.196 258.243 187.732 261.522C217.196 267.261 239.294 242.666 258.936 229.549ZM177.91 234.468C219.651 233.648 251.57 195.117 249.115 150.846C240.112 180.36 226.199 204.954 190.187 207.414C191.824 209.873 195.916 209.873 195.098 214.792C144.354 243.486 94.4285 177.9 118.982 131.171C125.529 168.063 132.077 204.954 170.544 209.873C159.904 196.756 213.103 193.477 214.74 158.225C215.559 133.63 194.279 113.135 170.544 106.576C209.011 95.9187 223.743 130.351 229.472 160.684C252.389 107.396 191.824 86.0809 145.991 94.2791C146.809 91.8196 148.446 90.18 150.901 89.3602C55.143 97.5584 93.6101 236.107 177.91 234.468ZM165.633 263.981C153.357 250.044 138.625 253.324 116.527 246.765C73.9673 234.468 62.509 199.216 60.0536 141.009C49.4138 207.414 91.9732 263.981 165.633 263.981Z" fill="#38CFFF"/>
</svg>
