<svg width="464" height="502" viewBox="0 0 464 502" fill="none" xmlns="http://www.w3.org/2000/svg">
<path fill-rule="evenodd" clip-rule="evenodd" d="M5.09232 291.711C5.28818 291.32 5.67984 290.928 6.2674 290.537C6.46326 290.341 6.85504 290.145 7.05087 290.145C18.2148 281.139 30.5538 273.699 42.697 266.064C48.9644 259.603 55.036 253.143 60.9117 245.899C71.0963 233.173 77.168 216.728 85.1981 199.108C92.4449 183.249 99.4957 165.042 104.392 146.443C109.484 126.865 113.598 108.07 123.586 93.7783C130.441 83.9893 137.884 74.7877 144.347 64.803C151.006 54.4267 159.82 46.5955 166.675 37.1981C167.654 35.8276 168.242 33.8698 169.417 32.4994C177.251 24.0809 190.57 25.4513 202.909 29.1711C205.259 30.7374 206.042 33.4783 208.001 35.6318C215.639 31.3247 224.061 17.6201 235.421 16.2497C251.286 14.2919 262.058 20.1653 267.15 31.7163C272.046 27.9964 279.685 27.0175 285.756 24.4724C288.89 23.102 291.436 20.7526 293.983 20.1653C312.001 15.075 315.723 33.0867 322.186 43.2672C343.926 33.4783 358.42 15.6623 385.448 12.1383C387.603 11.3552 389.953 10.5721 392.107 9.98475C397.2 7.63539 403.663 4.30714 411.301 3.71981C420.898 2.93669 429.124 4.30715 436.763 2.93669C441.268 2.15357 444.793 0 448.514 0C458.307 0.195779 463.987 6.6565 463.4 13.7046C462.616 23.4935 449.494 33.0867 443.03 37.7854C431.866 45.8124 417.569 50.3153 405.426 55.9929C395.633 60.4958 390.932 66.565 383.098 73.2215C373.697 81.2484 363.12 88.1007 353.132 94.953C347.843 98.477 342.164 100.239 336.288 103.567C321.011 111.79 319.052 130.976 310.826 149.184C308.28 155.057 305.342 160.343 302.404 166.804C298.683 174.635 292.612 182.662 294.766 189.906C308.476 182.075 324.145 174.635 341.576 169.936C348.039 168.174 354.111 168.958 361.749 168.174C380.16 166.608 414.043 169.153 411.889 187.752C410.322 201.457 394.066 205.373 378.789 204.394C376.83 205.568 375.068 207.135 373.697 208.897C359.203 211.833 349.802 223.384 337.855 228.866C334.133 230.628 330.608 230.824 327.866 231.803C319.444 235.131 310.826 242.766 304.363 249.031C300.446 252.751 297.704 258.037 292.612 261.561C286.148 266.064 278.118 267.826 271.263 271.742C264.408 275.462 257.357 278.79 251.09 283.097C238.946 291.711 228.37 302.479 215.835 312.268C209.96 316.967 202.517 319.512 195.662 323.623C182.539 331.454 168.829 338.894 154.336 345.159C154.14 345.746 153.944 346.334 153.161 346.725C139.255 356.71 124.37 365.52 112.226 377.658C112.031 377.854 111.639 378.05 111.443 378.246C96.362 393.321 82.6519 410.549 68.7461 426.407C52.294 445.398 34.4709 462.822 17.4313 481.617C11.5556 488.078 5.8757 494.93 0.391663 501.782V295.431C2.15439 294.061 3.72131 292.886 5.09232 291.711Z" fill="#171717"/>
<path fill-rule="evenodd" clip-rule="evenodd" d="M390.736 186.969C394.066 185.403 400.137 183.837 404.642 185.99C404.838 190.298 403.467 193.038 402.292 195.584C398.179 195.192 393.282 197.346 390.149 195.975C391.911 193.822 390.54 189.514 390.736 186.969Z" fill="white"/>
<path fill-rule="evenodd" clip-rule="evenodd" d="M453.998 8.22274C450.669 8.22274 448.318 9.00585 445.968 10.1805C443.814 8.61429 441.072 7.6354 440.288 4.89449C444.401 4.69871 453.607 3.52403 453.998 8.22274Z" fill="white"/>
<path fill-rule="evenodd" clip-rule="evenodd" d="M383.294 197.346C384.273 194.409 386.036 192.255 387.407 189.71C386.231 192.451 387.407 197.933 383.294 197.346Z" fill="white"/>
<path fill-rule="evenodd" clip-rule="evenodd" d="M9.98868 295.627C10.1845 295.431 10.3804 295.235 10.5762 295.235C28.3993 285.25 45.243 274.287 59.3448 259.799C59.7365 259.408 60.1283 259.016 60.52 258.624C73.4466 246.682 84.0229 224.559 91.2696 205.568C105.176 169.349 111.443 125.69 130.637 96.1276C133.379 92.0163 136.513 89.0796 139.842 84.5766C151.986 68.327 160.603 49.7279 173.922 35.2402C182.148 36.8065 191.941 39.9389 197.816 41.701C195.074 35.6318 187.044 34.4571 179.602 32.6951C184.302 32.3036 191.941 34.0656 198.208 33.8698C200.362 35.6318 200.754 38.9601 202.517 40.9178C197.62 47.5743 192.332 53.6435 186.261 58.538C180.385 63.4325 172.551 66.9565 168.829 74.3961C183.91 73.8088 190.765 61.4747 200.558 51.0984C204.671 46.7912 209.372 43.6588 214.072 38.5685C217.794 34.4571 223.67 27.4091 227.587 26.0386C236.4 23.2977 247.956 31.3247 255.007 33.2824C254.811 26.6259 247.564 26.0386 242.864 23.4935C242.864 22.9061 242.276 22.9061 242.276 22.3188C250.502 23.2977 262.841 26.6259 259.511 36.8065C257.749 42.0925 243.451 47.1828 237.38 49.9237C220.144 57.7549 204.28 59.9084 196.837 78.1159C192.92 87.5133 190.374 97.6938 186.457 107.091C175.293 134.892 165.108 163.672 151.006 186.578C167.262 165.238 180.581 135.871 191.941 106.895C195.858 97.1065 197.816 85.3598 202.909 77.3328C207.805 69.8932 218.577 60.4958 227.783 57.7549C230.72 56.9717 234.442 57.5591 237.575 56.5802C245.214 54.2308 254.615 47.5743 262.058 43.0714C265.387 40.9178 269.892 38.5685 274.005 36.0234C277.922 33.4782 282.427 29.9542 285.952 29.5626C299.075 27.8006 304.559 35.2402 308.084 43.0714C310.435 34.6529 304.951 27.9964 296.333 27.2133C308.28 24.2766 311.805 37.198 314.548 46.0081C304.559 52.4688 295.549 60.3 280.272 60.6916C278.51 62.8451 272.242 62.6493 273.222 65.7818C279.685 63.4325 284.777 69.5016 291.828 68.1312C294.178 67.7396 294.57 65.1945 296.92 63.6282C300.25 61.2789 305.538 59.7127 310.043 56.5802C314.156 53.8393 318.269 51.0984 322.578 48.9448C331.587 44.2461 340.009 37.3938 347.843 33.674C353.327 30.9331 358.811 30.15 363.512 25.6471C371.934 26.4302 377.81 29.3669 384.273 31.912C383.294 26.8217 378.593 25.0597 375.263 22.3188C386.623 24.0808 388.973 33.4782 392.107 42.2883C395.045 40.9178 392.891 35.6318 392.695 33.2824C393.87 33.4782 393.87 35.0445 394.262 35.8276C395.241 29.7584 389.365 19.9694 380.16 19.1863C387.015 12.7256 392.695 24.2766 396.024 25.6471C396.808 20.5568 395.045 17.8159 393.086 15.075C399.746 13.313 406.601 9.9847 414.043 10.3763C422.661 10.9636 427.166 18.9906 433.433 20.1652C432.062 15.075 427.753 12.7256 424.424 9.20159C436.959 6.85224 443.618 21.7315 455.761 12.5298C450.865 27.8006 435 33.674 421.094 41.1136C410.126 46.987 398.962 52.273 389.757 58.3422C368.996 72.0468 352.152 88.2964 330.804 96.9107C329.041 96.5192 328.649 93.3867 326.691 94.7572C326.495 96.715 327.866 98.8685 326.299 100.239C316.898 110.615 313.177 126.865 305.93 144.289C302.992 151.533 298.683 158.19 294.766 165.434C291.436 171.894 285.756 183.054 285.952 189.123C286.148 194.996 294.962 200.086 296.333 206.156C300.25 204.981 296.724 199.695 296.92 196.562C302.6 193.822 308.476 191.472 314.548 187.948C319.836 185.011 324.732 180.117 330.412 178.159C348.627 171.307 379.181 174.439 399.942 180.313C396.22 182.466 390.932 183.054 387.407 185.599C386.427 185.403 387.015 181.096 385.84 183.054C379.768 186.773 378.005 194.213 373.305 199.108C368.604 204.002 362.533 206.351 356.265 209.484C354.894 209.092 356.657 205.764 355.286 205.177C352.348 205.568 354.111 211.246 351.76 212.225C351.369 207.526 353.132 201.261 349.019 198.716C347.843 203.806 348.235 211.442 345.493 216.14C344.318 212.812 345.885 207.135 345.689 202.827C341.576 205.372 341.38 212.225 340.401 218.294C328.258 227.104 312.197 229.649 301.425 240.613C300.054 241.983 298.879 244.333 297.508 245.899C282.231 262.736 257.357 269.392 238.751 283.293C231.896 288.383 226.02 295.431 218.185 301.304C200.167 315.009 179.014 320.491 160.407 332.629C148.656 340.264 138.667 343.984 130.441 354.948C131.225 354.752 131.812 354.556 132.4 354.165C127.503 357.493 122.607 361.017 118.102 364.737C117.515 364.737 116.927 364.933 116.339 365.52C97.9288 382.161 81.8685 402.522 65.4164 421.317C47.5934 441.678 28.2034 460.669 10.3804 480.834C6.85492 484.945 3.3295 489.057 -9.15527e-05 493.168V304.437C3.72122 300.717 6.65909 298.172 9.98868 295.627ZM387.798 46.2039C392.107 44.8334 389.953 38.1769 387.798 35.8276C384.86 37.7854 387.798 43.463 387.798 46.2039ZM378.789 45.0292C372.913 48.9448 368.408 54.8182 362.141 58.538C368.408 57.3633 374.872 50.9026 378.789 45.0292ZM321.99 189.71C319.444 191.276 316.114 191.668 315.527 195.388C317.877 193.626 321.403 193.234 321.99 189.71ZM312.001 195.779C308.28 197.933 304.559 200.282 300.642 202.24C304.167 202.436 311.022 200.87 312.001 195.779ZM313.96 91.6247C323.165 82.0315 335.896 78.7033 346.864 70.6763C337.855 76.5497 324.34 78.3117 315.723 84.9682C297.312 98.8685 288.303 123.145 283.406 152.512C290.457 128.04 299.271 107.091 313.96 91.6247ZM278.314 89.2753C267.738 90.8416 260.491 101.805 255.594 111.986C264.408 105.917 273.222 99.8474 278.314 89.2753ZM240.513 66.9565C242.276 66.5649 243.255 63.2367 242.08 61.6705C241.101 61.4747 241.101 62.2578 240.317 62.062C240.513 63.4325 240.905 64.8029 240.513 66.9565ZM224.649 77.9201C214.464 87.9049 199.775 96.1276 199.187 114.922C204.475 99.0643 217.794 92.212 224.649 77.9201ZM195.27 182.075C184.302 190.102 174.705 205.177 163.933 215.749C175.293 208.113 186.065 194.017 195.27 182.075ZM167.067 76.5497C161.387 76.7455 159.036 80.661 155.119 83.0104C160.016 84.3809 164.912 80.4653 167.067 76.5497ZM157.665 92.4078C156.882 92.6036 156.686 93.3867 155.707 93.5825C141.605 120.992 134.75 156.623 122.999 186.578C138.275 159.364 145.522 123.145 157.665 92.4078Z" fill="white"/>
</svg>
