<svg width="344" height="294" viewBox="0 0 344 294" fill="none" xmlns="http://www.w3.org/2000/svg">
<path fill-rule="evenodd" clip-rule="evenodd" d="M73.8313 0C71.5551 0.651074 71.2299 5.20859 72.8557 6.83627C75.1319 7.16181 76.7577 6.83627 77.7332 5.85966C78.3836 2.27876 77.0829 0.325537 73.8313 0Z" fill="#FFB32C"/>
<path fill-rule="evenodd" clip-rule="evenodd" d="M91.3904 10.7428C57.573 7.48743 30.259 39.3901 32.8603 74.2225C33.8358 89.1972 42.6153 101.568 54.3213 104.497C20.5039 71.2927 52.0451 -5.20851 106.998 18.5557C104.397 11.3939 97.5685 11.3939 91.3904 10.7428Z" fill="#FFB32C"/>
<path fill-rule="evenodd" clip-rule="evenodd" d="M155.123 39.0645C152.847 41.9943 154.798 46.5519 158.05 46.8774C158.375 46.2263 159.025 45.9008 160.001 45.9008C161.301 42.971 160.326 41.6688 159.025 39.0645C157.724 39.0645 156.424 39.0645 155.123 39.0645Z" fill="#FFB32C"/>
<path fill-rule="evenodd" clip-rule="evenodd" d="M105.373 41.0176C105.373 42.3197 105.373 43.6219 105.373 44.924C108.299 45.9006 108.299 45.9006 111.226 44.924C111.226 43.6219 111.226 42.3197 111.226 41.0176C109.925 39.7154 106.348 39.7154 105.373 41.0176Z" fill="#FFB32C"/>
<path fill-rule="evenodd" clip-rule="evenodd" d="M114.152 45.9006C116.753 46.2262 118.379 45.5751 118.054 42.9708C116.753 42.9708 116.753 41.6687 115.127 41.9942C114.802 43.2964 113.502 43.9474 114.152 45.9006Z" fill="#FFB32C"/>
<path fill-rule="evenodd" clip-rule="evenodd" d="M24.0808 53.0624C11.0741 57.62 22.7801 38.0877 24.0808 53.0624V53.0624Z" fill="#FFB32C"/>
<path fill-rule="evenodd" clip-rule="evenodd" d="M82.6107 66.735C83.9114 71.9436 95.9426 79.7565 102.121 79.4309C111.876 78.7799 116.103 65.7584 113.827 54.039C99.5194 41.9942 78.7087 50.1326 82.6107 66.735ZM104.397 71.618C88.7889 74.8734 83.5862 59.5732 93.6664 53.0624C91.3903 57.9455 91.0651 69.0137 99.5194 68.6882C103.747 68.6882 109.925 61.8519 103.421 56.9689C111.225 54.0391 107.323 68.3627 104.397 71.618Z" fill="#FFB32C"/>
<path fill-rule="evenodd" clip-rule="evenodd" d="M157.074 64.7816C146.344 93.4289 134.638 121.425 96.593 120.448C89.7645 120.448 83.5863 116.542 76.1075 118.495C92.691 129.238 124.232 123.053 135.613 111.659C127.809 119.797 119.355 126.308 106.348 127.285C80.0095 129.563 60.8246 112.636 43.916 103.846C59.8491 133.795 128.459 144.538 143.742 106.776C140.491 105.799 139.515 112.31 137.889 109.706C147.319 99.2885 159.675 81.0585 157.074 64.7816Z" fill="#FFB32C"/>
<path fill-rule="evenodd" clip-rule="evenodd" d="M161.952 85.2906C159.35 87.2439 159.675 91.1503 163.903 91.1503C164.878 90.1737 165.203 88.546 164.878 86.2673C163.577 86.2673 162.602 85.6162 161.952 85.2906Z" fill="#FFB32C"/>
<path fill-rule="evenodd" clip-rule="evenodd" d="M152.197 97.0099C152.522 100.265 153.172 103.521 157.074 102.87C158.375 101.567 158.375 97.3354 157.074 96.0333C154.798 95.7077 153.172 96.0333 152.197 97.0099Z" fill="#FFB32C"/>
<path fill-rule="evenodd" clip-rule="evenodd" d="M102.121 8.78933C115.127 12.6958 131.061 18.881 135.288 28.3216C125.858 22.7874 113.827 19.8576 99.1943 19.532C111.551 26.0428 129.76 26.6939 135.288 40.0409C131.386 37.7621 130.41 40.692 128.459 42.9707C119.68 29.6237 88.789 26.3683 73.8313 36.1344C86.1876 20.5087 113.827 28.3216 127.484 37.111C105.047 7.48718 55.9471 29.9492 52.3703 61.5263C53.6709 39.3898 67.0028 29.2982 82.6108 21.4853C71.8803 20.8342 62.4504 28.3216 58.2233 33.2046C32.8602 61.5263 47.1676 102.218 85.5373 110.357C131.386 120.123 160.001 75.5244 144.067 41.0175C147.319 21.8108 123.257 7.48718 102.121 8.78933ZM131.711 46.8772C133.012 45.2495 136.914 48.1793 137.564 43.9473C138.54 44.2729 139.19 44.9239 139.515 45.9005C139.84 49.1559 136.588 48.8304 135.613 50.7836C140.165 62.5029 134.312 84.965 122.931 89.848C132.687 82.3607 139.84 61.2008 131.711 46.8772ZM52.3703 68.6881C54.9716 74.5478 56.2723 81.7096 60.1743 86.2671C56.5974 85.2905 52.6954 76.1755 52.3703 68.6881ZM62.1253 91.1502C68.9538 94.08 78.7088 102.544 90.4148 103.846C78.7088 106.125 69.9293 96.3588 62.1253 91.1502ZM94.3168 93.1034C77.7333 92.7779 65.0518 77.4776 66.0273 59.8986C69.6041 71.618 75.1319 81.3841 89.4393 82.3607C88.789 83.3373 87.1631 83.3373 87.4883 85.2905C107.649 96.6843 127.484 70.6413 117.729 52.0857C115.127 66.7349 112.526 81.3841 97.2433 83.3373C101.47 78.1287 80.3346 76.8266 79.6843 62.8285C79.3591 53.0624 87.8135 44.9239 97.2433 42.3196C81.9604 38.0877 76.1075 51.7602 73.8313 63.8051C64.7266 42.6452 88.789 34.1812 106.998 37.4366C106.673 36.46 106.023 35.8089 105.047 35.4834C143.092 38.7387 127.809 93.7545 94.3168 93.1034ZM99.1943 104.823C104.072 99.2886 109.925 100.591 118.704 97.9865C135.613 93.1034 140.165 79.1053 141.141 55.9922C145.368 82.3607 128.459 104.823 99.1943 104.823Z" fill="#FFB32C"/>
<path fill-rule="evenodd" clip-rule="evenodd" d="M58.9422 119.843C56.9882 116.718 56.5975 112.03 49.9542 114.374C46.4371 119.062 51.5173 122.187 53.0804 124.921C-3.19224 156.171 8.14045 269.062 83.1707 271.406C114.824 272.577 146.087 255.781 154.293 229.218C131.237 241.327 118.732 259.296 87.4693 260.077C44.874 260.859 18.6916 225.312 21.0363 185.859C22.5994 155.78 49.1726 122.187 79.2628 115.546C139.443 102.655 170.706 164.374 162.109 217.499C182.82 197.187 166.798 151.483 150.385 132.343C130.846 110.077 89.814 99.5302 58.9422 119.843Z" fill="#FF5500"/>
<path fill-rule="evenodd" clip-rule="evenodd" d="M32.7598 125.312C32.7598 127.655 29.6335 126.874 30.8059 130.39C35.8861 132.734 38.6215 126.484 32.7598 125.312Z" fill="#FF5500"/>
<path fill-rule="evenodd" clip-rule="evenodd" d="M10.876 142.499C8.92204 147.187 11.6575 152.265 17.5193 151.874C19.8639 146.796 17.91 140.546 10.876 142.499Z" fill="#FF5500"/>
<path fill-rule="evenodd" clip-rule="evenodd" d="M13.2207 159.296C11.2668 159.687 12.4391 162.421 12.4391 164.374C21.0363 170.624 21.0363 152.265 13.2207 159.296Z" fill="#FF5500"/>
<path fill-rule="evenodd" clip-rule="evenodd" d="M0.324841 217.89C3.06032 217.109 3.06033 219.843 6.57737 218.671C13.2207 212.421 -2.41063 206.171 0.324841 217.89Z" fill="#FF5500"/>
<path fill-rule="evenodd" clip-rule="evenodd" d="M78.8721 128.437C89.0324 129.999 105.054 124.14 112.87 131.171C56.9882 126.093 25.3349 187.812 53.862 229.218C29.6335 214.374 31.9782 148.359 60.5053 149.14C60.1145 139.765 66.367 136.249 72.6195 130.39C63.6315 131.562 60.1145 137.812 52.6896 140.155C21.0363 170.234 24.9441 237.812 69.1025 245.234C80.826 247.187 90.2047 243.671 101.537 243.281C181.648 238.593 154.684 96.796 78.8721 128.437ZM87.4693 222.187C44.4832 224.531 61.2868 153.046 96.0665 150.312C111.698 149.14 118.732 162.812 124.203 176.093C117.169 166.718 112.089 156.562 98.802 157.343C83.1707 158.124 62.4592 181.562 65.1947 198.359C67.1486 211.64 81.2167 221.406 103.882 215.156C106.618 217.109 94.1126 221.796 87.4693 222.187ZM100.365 177.656C106.227 183.515 99.9743 190.546 95.2849 193.671C82.7799 191.327 88.2508 176.874 100.365 177.656ZM81.6075 205.39C77.6997 203.437 75.355 200.312 72.6195 197.577C68.7117 174.921 88.2508 163.202 105.445 166.327C86.2969 164.765 68.3209 185.077 81.6075 205.39ZM123.812 204.999C117.95 207.734 114.433 212.421 107.399 214.374C117.169 209.296 121.077 199.14 124.984 188.984C124.984 186.249 123.03 176.093 125.375 179.218C127.329 189.765 126.548 198.359 123.812 204.999ZM126.548 226.874C132.8 218.671 132.8 206.562 133.972 192.499C138.271 192.499 138.662 193.671 142.57 192.109C142.179 207.734 134.363 217.499 126.548 226.874ZM127.329 165.156C121.467 154.999 110.525 144.062 95.6757 145.624C88.2508 146.405 78.872 154.218 71.4472 160.468C48.0002 180.39 50.3449 237.421 92.9402 229.218C93.331 229.218 93.7218 229.218 94.1126 229.218C99.9743 229.999 86.2969 232.734 81.2167 232.343C75.355 231.953 67.9301 229.218 65.1947 227.265C27.6796 203.046 55.8159 142.499 96.848 137.03C124.594 133.124 136.708 159.296 142.179 185.859C131.628 183.906 131.628 172.187 127.329 165.156Z" fill="#FF5500"/>
<path fill-rule="evenodd" clip-rule="evenodd" d="M210.295 281.253C207.998 284.927 207.539 290.437 199.729 287.682C195.594 282.171 201.566 278.497 203.404 275.282C137.247 238.543 150.57 105.823 238.78 103.068C275.993 101.69 312.747 121.437 322.395 152.666C295.289 138.429 280.587 117.304 243.833 116.386C193.756 115.467 162.975 157.258 165.731 203.641C167.569 239.003 198.81 278.497 234.185 286.304C304.937 301.459 341.69 228.899 331.583 166.443C355.933 190.323 337.096 244.054 317.8 266.557C294.829 292.734 246.59 305.133 210.295 281.253Z" fill="#FFF61B"/>
<path fill-rule="evenodd" clip-rule="evenodd" d="M179.514 274.823C179.514 272.068 175.839 272.986 177.217 268.853C183.189 266.098 186.405 273.445 179.514 274.823Z" fill="#FFF61B"/>
<path fill-rule="evenodd" clip-rule="evenodd" d="M153.786 254.616C151.489 249.106 154.705 243.135 161.597 243.595C164.353 249.565 162.056 256.913 153.786 254.616Z" fill="#FFF61B"/>
<path fill-rule="evenodd" clip-rule="evenodd" d="M156.543 234.869C154.246 234.41 155.624 231.195 155.624 228.899C165.731 221.551 165.731 243.136 156.543 234.869Z" fill="#FFF61B"/>
<path fill-rule="evenodd" clip-rule="evenodd" d="M141.382 165.983C144.598 166.902 144.598 163.687 148.733 165.065C156.543 172.413 138.166 179.761 141.382 165.983Z" fill="#FFF61B"/>
<path fill-rule="evenodd" clip-rule="evenodd" d="M233.726 271.149C245.671 269.312 264.507 276.201 273.696 267.934C207.998 273.905 170.785 201.345 204.323 152.665C175.839 170.116 178.595 247.728 212.133 246.809C211.674 257.831 219.024 261.964 226.375 268.853C215.808 267.475 211.674 260.127 202.945 257.372C165.731 222.011 170.326 142.562 222.24 133.837C236.023 131.54 247.049 135.673 260.373 136.133C354.554 141.644 322.854 308.348 233.726 271.149ZM243.833 160.932C193.297 158.176 213.052 242.217 253.941 245.432C272.318 246.809 280.587 230.736 287.019 215.122C278.749 226.144 272.777 238.084 257.157 237.165C238.78 236.247 214.43 208.693 217.646 188.945C219.943 173.331 236.483 161.85 263.129 169.198C266.345 166.902 251.643 161.391 243.833 160.932ZM258.994 213.285C265.886 206.396 258.535 198.13 253.022 194.456C238.32 197.212 244.752 214.203 258.994 213.285ZM236.942 180.679C232.348 182.975 229.591 186.649 226.375 189.864C221.781 216.5 244.752 230.277 264.967 226.603C242.455 228.44 221.322 204.559 236.942 180.679ZM286.56 181.138C279.668 177.924 275.534 172.413 267.264 170.116C278.749 176.087 283.344 188.027 287.938 199.967C287.938 203.182 285.641 215.122 288.397 211.448C290.695 199.049 289.776 188.945 286.56 181.138ZM289.776 155.421C297.126 165.065 297.126 179.301 298.505 195.834C303.558 195.834 304.018 194.456 308.612 196.293C308.153 177.924 298.964 166.443 289.776 155.421ZM290.695 227.981C283.803 239.921 270.939 252.78 253.481 250.943C244.752 250.024 233.726 240.839 224.997 233.492C197.432 210.07 200.188 143.021 250.265 152.665C250.725 152.665 251.184 152.665 251.643 152.665C258.535 151.747 242.455 148.532 236.483 148.991C229.591 149.451 220.862 152.665 217.646 154.962C173.542 183.434 206.62 254.617 254.859 261.046C287.479 265.638 301.721 234.869 308.153 203.641C295.748 205.937 295.748 219.714 290.695 227.981Z" fill="#FFF61B"/>
</svg>
