<svg width="823" height="2010" viewBox="0 0 823 2010" fill="none" xmlns="http://www.w3.org/2000/svg">
<g clip-path="url(#clip0_2012_1181)">
<path d="M-41.0467 802.823C3.00162 879.116 93.3461 919.418 204.344 922.485C315.303 925.551 446.556 891.366 571.731 819.096C696.907 746.826 792.138 650.25 844.962 552.624C897.805 454.964 908.075 356.572 864.027 280.278C819.979 203.984 729.634 163.682 618.637 160.616C507.677 157.55 376.424 191.734 251.249 264.004C126.073 336.274 30.8424 432.851 -21.9823 530.477C-74.8251 628.137 -85.095 726.529 -41.0467 802.823Z" fill="#1660ED" stroke="#38CFFF" stroke-width="4"/>
<path d="M864.027 802.823C819.978 879.116 729.634 919.418 618.636 922.485C507.677 925.551 376.424 891.366 251.249 819.096C126.073 746.826 30.8422 650.25 -21.9824 552.624C-74.8253 454.964 -85.0951 356.572 -41.0468 280.278C3.00147 203.984 93.3459 163.682 204.343 160.616C315.303 157.55 446.556 191.734 571.731 264.004C696.907 336.274 792.138 432.851 844.962 530.477C897.805 628.137 908.075 726.529 864.027 802.823Z" fill="#1660ED" stroke="#38CFFF" stroke-width="4"/>
<path d="M934.034 512.101C934.034 591.97 876.062 664.692 781.423 717.561C686.85 770.394 556.062 803.135 411.49 803.135C266.917 803.135 136.13 770.394 41.5562 717.561C-53.0828 664.692 -111.055 591.97 -111.055 512.101C-111.055 432.233 -53.0828 359.511 41.5562 306.641C136.13 253.808 266.917 221.068 411.49 221.068C556.062 221.068 686.85 253.808 781.423 306.641C876.062 359.511 934.034 432.233 934.034 512.101Z" fill="#1660ED" stroke="#38CFFF" stroke-width="4"/>
</g>
<g clip-path="url(#clip1_2012_1181)">
<path d="M-41.0467 1207.18C3.00162 1130.88 93.3461 1090.58 204.344 1087.52C315.303 1084.45 446.556 1118.63 571.731 1190.9C696.907 1263.17 792.138 1359.75 844.962 1457.38C897.805 1555.04 908.075 1653.43 864.027 1729.72C819.979 1806.02 729.634 1846.32 618.637 1849.38C507.677 1852.45 376.424 1818.27 251.249 1746C126.073 1673.73 30.8424 1577.15 -21.9823 1479.52C-74.8251 1381.86 -85.095 1283.47 -41.0467 1207.18Z" fill="#1660ED" stroke="#38CFFF" stroke-width="4"/>
<path d="M864.027 1207.18C819.978 1130.88 729.634 1090.58 618.636 1087.52C507.677 1084.45 376.424 1118.63 251.249 1190.9C126.073 1263.17 30.8422 1359.75 -21.9824 1457.38C-74.8253 1555.04 -85.0951 1653.43 -41.0468 1729.72C3.00147 1806.02 93.3459 1846.32 204.343 1849.38C315.303 1852.45 446.556 1818.27 571.731 1746C696.907 1673.73 792.138 1577.15 844.962 1479.52C897.805 1381.86 908.075 1283.47 864.027 1207.18Z" fill="#1660ED" stroke="#38CFFF" stroke-width="4"/>
<path d="M934.034 1497.9C934.034 1418.03 876.062 1345.31 781.423 1292.44C686.85 1239.61 556.062 1206.87 411.49 1206.87C266.917 1206.87 136.13 1239.61 41.5562 1292.44C-53.0828 1345.31 -111.055 1418.03 -111.055 1497.9C-111.055 1577.77 -53.0828 1650.49 41.5562 1703.36C136.13 1756.19 266.917 1788.93 411.49 1788.93C556.062 1788.93 686.85 1756.19 781.423 1703.36C876.062 1650.49 934.034 1577.77 934.034 1497.9Z" fill="#1660ED" stroke="#38CFFF" stroke-width="4"/>
</g>
<path d="M0 569H460.658H822V1347.4L414 1706L0 1347.4V569Z" fill="#1660ED"/>
<defs>
<clipPath id="clip0_2012_1181">
<rect width="822" height="828.154" fill="white" transform="translate(1)"/>
</clipPath>
<clipPath id="clip1_2012_1181">
<rect width="822" height="828.154" fill="white" transform="matrix(1 0 0 -1 1 2010)"/>
</clipPath>
</defs>
</svg>
