<svg width="464" height="502" viewBox="0 0 464 502" fill="none" xmlns="http://www.w3.org/2000/svg">
<path fill-rule="evenodd" clip-rule="evenodd" d="M458.349 291.711C458.153 291.32 457.761 290.928 457.174 290.537C456.978 290.341 456.586 290.145 456.39 290.145C445.226 281.139 432.887 273.699 420.744 266.064C414.477 259.603 408.405 253.143 402.529 245.899C392.345 233.173 386.273 216.728 378.243 199.108C370.996 183.249 363.945 165.042 359.049 146.443C353.957 126.865 349.844 108.07 339.855 93.7783C333 83.9893 325.557 74.7877 319.094 64.803C312.435 54.4267 303.621 46.5955 296.766 37.1981C295.787 35.8276 295.199 33.8698 294.024 32.4994C286.19 24.0809 272.871 25.4513 260.532 29.1711C258.182 30.7374 257.399 33.4783 255.44 35.6318C247.802 31.3247 239.38 17.6201 228.02 16.2497C212.156 14.2919 201.383 20.1653 196.291 31.7163C191.395 27.9964 183.756 27.0175 177.685 24.4724C174.551 23.102 172.005 20.7526 169.459 20.1653C151.44 15.075 147.718 33.0867 141.255 43.2672C119.515 33.4783 105.021 15.6623 77.9929 12.1383C75.8385 11.3552 73.4882 10.5721 71.3338 9.98475C66.2415 7.63539 59.7782 4.30714 52.1397 3.71981C42.5427 2.93669 34.3167 4.30715 26.6782 2.93669C22.1735 2.15357 18.648 0 14.9267 0C5.13384 0.195779 -0.546035 6.6565 0.0415384 13.7046C0.82497 23.4935 13.9474 33.0867 20.4108 37.7854C31.5746 45.8124 45.8723 50.3153 58.0154 55.9929C67.8083 60.4958 72.5089 66.565 80.3432 73.2215C89.7444 81.2484 100.321 88.1007 110.309 94.953C115.598 98.477 121.277 100.239 127.153 103.567C142.43 111.79 144.389 130.976 152.615 149.184C155.161 155.057 158.099 160.343 161.037 166.804C164.758 174.635 170.83 182.662 168.675 189.906C154.965 182.075 139.296 174.635 121.865 169.936C115.402 168.174 109.33 168.958 101.692 168.174C83.2811 166.608 49.3977 169.153 51.5521 187.752C53.119 201.457 69.3752 205.373 84.6521 204.394C86.6107 205.568 88.3734 207.135 89.7444 208.897C104.238 211.833 113.639 223.384 125.586 228.866C129.308 230.628 132.833 230.824 135.575 231.803C143.997 235.131 152.615 242.766 159.078 249.031C162.995 252.751 165.737 258.037 170.83 261.561C177.293 266.064 185.323 267.826 192.178 271.742C199.033 275.462 206.084 278.79 212.351 283.097C224.495 291.711 235.071 302.479 247.606 312.268C253.482 316.967 260.924 319.512 267.779 323.623C280.902 331.454 294.612 338.894 309.105 345.159C309.301 345.746 309.497 346.334 310.28 346.725C324.186 356.71 339.071 365.52 351.215 377.658C351.41 377.854 351.802 378.05 351.998 378.246C367.079 393.321 380.789 410.549 394.695 426.407C411.147 445.398 428.97 462.822 446.01 481.617C451.885 488.078 457.565 494.93 463.049 501.782V295.431C461.287 294.061 459.72 292.886 458.349 291.711Z" fill="#171717"/>
<path fill-rule="evenodd" clip-rule="evenodd" d="M72.7048 186.969C69.3752 185.403 63.3036 183.837 58.7988 185.99C58.603 190.298 59.974 193.038 61.1491 195.584C65.2622 195.192 70.1586 197.346 73.2923 195.975C71.5296 193.822 72.9006 189.514 72.7048 186.969Z" fill="white"/>
<path fill-rule="evenodd" clip-rule="evenodd" d="M9.44263 8.22274C12.7722 8.22274 15.1225 9.00585 17.4728 10.1805C19.6272 8.61429 22.3692 7.6354 23.1527 4.89449C19.0397 4.69871 9.83434 3.52403 9.44263 8.22274Z" fill="white"/>
<path fill-rule="evenodd" clip-rule="evenodd" d="M80.1474 197.346C79.1681 194.409 77.4054 192.255 76.0344 189.71C77.2096 192.451 76.0344 197.933 80.1474 197.346Z" fill="white"/>
<path fill-rule="evenodd" clip-rule="evenodd" d="M453.452 295.627C453.256 295.431 453.061 295.235 452.865 295.235C435.042 285.25 418.198 274.287 404.096 259.799C403.704 259.408 403.313 259.016 402.921 258.624C389.994 246.682 379.418 224.559 372.171 205.568C358.265 169.349 351.998 125.69 332.804 96.1276C330.062 92.0163 326.928 89.0796 323.599 84.5766C311.455 68.327 302.838 49.7279 289.519 35.2402C281.293 36.8065 271.5 39.9389 265.625 41.701C268.367 35.6318 276.397 34.4571 283.839 32.6951C279.139 32.3036 271.5 34.0656 265.233 33.8698C263.078 35.6318 262.687 38.9601 260.924 40.9178C265.82 47.5743 271.109 53.6435 277.18 58.538C283.056 63.4325 290.89 66.9565 294.612 74.3961C279.531 73.8088 272.676 61.4747 262.883 51.0984C258.77 46.7912 254.069 43.6588 249.368 38.5685C245.647 34.4571 239.771 27.4091 235.854 26.0386C227.041 23.2977 215.485 31.3247 208.434 33.2824C208.63 26.6259 215.877 26.0386 220.577 23.4935C220.577 22.9061 221.165 22.9061 221.165 22.3188C212.939 23.2977 200.6 26.6259 203.929 36.8065C205.692 42.0925 219.99 47.1828 226.061 49.9237C243.297 57.7549 259.161 59.9084 266.604 78.1159C270.521 87.5133 273.067 97.6938 276.984 107.091C288.148 134.892 298.333 163.672 312.435 186.578C296.178 165.238 282.86 135.871 271.5 106.895C267.583 97.1065 265.625 85.3598 260.532 77.3328C255.636 69.8932 244.864 60.4958 235.658 57.7549C232.721 56.9717 228.999 57.5591 225.866 56.5802C218.227 54.2308 208.826 47.5743 201.383 43.0714C198.054 40.9178 193.549 38.5685 189.436 36.0234C185.519 33.4782 181.014 29.9542 177.489 29.5626C164.366 27.8006 158.882 35.2402 155.357 43.0714C153.006 34.6529 158.49 27.9964 167.108 27.2133C155.161 24.2766 151.635 37.198 148.893 46.0081C158.882 52.4688 167.892 60.3 183.169 60.6916C184.931 62.8451 191.199 62.6493 190.219 65.7818C183.756 63.4325 178.664 69.5016 171.613 68.1312C169.263 67.7396 168.871 65.1945 166.521 63.6282C163.191 61.2789 157.903 59.7127 153.398 56.5802C149.285 53.8393 145.172 51.0984 140.863 48.9448C131.854 44.2461 123.432 37.3938 115.598 33.674C110.114 30.9331 104.63 30.15 99.929 25.6471C91.5071 26.4302 85.6313 29.3669 79.168 31.912C80.1473 26.8217 84.8479 25.0597 88.1775 22.3188C76.8177 24.0808 74.4674 33.4782 71.3337 42.2883C68.3958 40.9178 70.5503 35.6318 70.7461 33.2824C69.571 33.4782 69.571 35.0445 69.1793 35.8276C68.2 29.7584 74.0757 19.9694 83.281 19.1863C76.426 12.7256 70.7461 24.2766 67.4166 25.6471C66.6331 20.5568 68.3958 17.8159 70.3544 15.075C63.6953 13.313 56.8402 9.9847 49.3976 10.3763C40.7799 10.9636 36.2752 18.9906 30.0077 20.1652C31.3787 15.075 35.6876 12.7256 39.0172 9.20159C26.4823 6.85224 19.8231 21.7315 7.67993 12.5298C12.5764 27.8006 28.4409 33.674 42.3468 41.1136C53.3148 46.987 64.4787 52.273 73.684 58.3422C94.4449 72.0468 111.289 88.2964 132.637 96.9107C134.4 96.5192 134.792 93.3867 136.75 94.7572C136.946 96.715 135.575 98.8685 137.142 100.239C146.543 110.615 150.264 126.865 157.511 144.289C160.449 151.533 164.758 158.19 168.675 165.434C172.005 171.894 177.684 183.054 177.489 189.123C177.293 194.996 168.479 200.086 167.108 206.156C163.191 204.981 166.716 199.695 166.521 196.562C160.841 193.822 154.965 191.472 148.893 187.948C143.605 185.011 138.709 180.117 133.029 178.159C114.814 171.307 84.2603 174.439 63.4994 180.313C67.2207 182.466 72.5089 183.054 76.0343 185.599C77.0136 185.403 76.426 181.096 77.6012 183.054C83.6728 186.773 85.4355 194.213 90.1361 199.108C94.8367 204.002 100.908 206.351 107.176 209.484C108.547 209.092 106.784 205.764 108.155 205.177C111.093 205.568 109.33 211.246 111.68 212.225C112.072 207.526 110.309 201.261 114.422 198.716C115.598 203.806 115.206 211.442 117.948 216.14C119.123 212.812 117.556 207.135 117.752 202.827C121.865 205.372 122.061 212.225 123.04 218.294C135.183 227.104 151.244 229.649 162.016 240.613C163.387 241.983 164.562 244.333 165.933 245.899C181.21 262.736 206.084 269.392 224.69 283.293C231.545 288.383 237.421 295.431 245.255 301.304C263.274 315.009 284.427 320.491 303.033 332.629C314.785 340.264 324.774 343.984 333 354.948C332.216 354.752 331.629 354.556 331.041 354.165C335.938 357.493 340.834 361.017 345.339 364.737C345.926 364.737 346.514 364.933 347.101 365.52C365.512 382.161 381.572 402.522 398.025 421.317C415.848 441.678 435.237 460.669 453.061 480.834C456.586 484.945 460.111 489.057 463.441 493.168V304.437C459.72 300.717 456.782 298.172 453.452 295.627ZM75.6426 46.2039C71.3337 44.8334 73.4882 38.1769 75.6426 35.8276C78.5805 37.7854 75.6426 43.463 75.6426 46.2039ZM84.652 45.0292C90.5278 48.9448 95.0325 54.8182 101.3 58.538C95.0325 57.3633 88.5692 50.9026 84.652 45.0292ZM141.451 189.71C143.997 191.276 147.327 191.668 147.914 195.388C145.564 193.626 142.038 193.234 141.451 189.71ZM151.44 195.779C155.161 197.933 158.882 200.282 162.799 202.24C159.274 202.436 152.419 200.87 151.44 195.779ZM149.481 91.6247C140.276 82.0315 127.545 78.7033 116.577 70.6763C125.586 76.5497 139.101 78.3117 147.718 84.9682C166.129 98.8685 175.138 123.145 180.035 152.512C172.984 128.04 164.17 107.091 149.481 91.6247ZM185.127 89.2753C195.703 90.8416 202.95 101.805 207.847 111.986C199.033 105.917 190.219 99.8474 185.127 89.2753ZM222.928 66.9565C221.165 66.5649 220.186 63.2367 221.361 61.6705C222.34 61.4747 222.34 62.2578 223.124 62.062C222.928 63.4325 222.536 64.8029 222.928 66.9565ZM238.792 77.9201C248.977 87.9049 263.666 96.1276 264.254 114.922C258.965 99.0643 245.647 92.212 238.792 77.9201ZM268.171 182.075C279.139 190.102 288.736 205.177 299.508 215.749C288.148 208.113 277.376 194.017 268.171 182.075ZM296.374 76.5497C302.054 76.7455 304.404 80.661 308.322 83.0104C303.425 84.3809 298.529 80.4653 296.374 76.5497ZM305.775 92.4078C306.559 92.6036 306.755 93.3867 307.734 93.5825C321.836 120.992 328.691 156.623 340.442 186.578C325.165 159.364 317.919 123.145 305.775 92.4078Z" fill="white"/>
</svg>
