<svg width="743" height="767" viewBox="0 0 743 767" fill="none" xmlns="http://www.w3.org/2000/svg">
<path d="M234.14 4.68399L234.139 4.68423C97.1163 27.7194 21.9176 143.007 4.79971 276.24C-12.3168 409.463 28.5689 560.939 124.017 656.851C128.652 661.508 134.438 664.716 140.418 667.158C147.339 669.984 153.743 673.342 159.874 677.006C167.211 681.389 173.355 683.718 178.279 684.163C183.248 684.612 187.055 683.136 189.455 679.856C191.803 676.647 192.661 671.895 192.239 666.073C191.815 660.225 190.092 653.154 187.104 645.156C179.942 625.99 163.48 607 143.991 600.32C101.413 585.724 71.3032 543.064 53.8993 487.902C46.7568 465.264 44.4577 449.564 45.5779 440.061C46.1384 435.306 47.5349 432.275 49.4237 430.642C51.2603 429.053 53.7582 428.623 56.9699 429.521C60.2082 430.426 64.0645 432.662 68.3859 436.245C72.6958 439.818 77.415 444.686 82.3803 450.781C92.3103 462.971 103.178 480.011 113.685 501.266C168.218 611.58 272.27 697.982 408.217 717.717C416.021 718.85 422.386 720.993 427.047 723.524C431.744 726.074 434.58 728.945 435.552 731.454C436.028 732.682 436.048 733.792 435.673 734.77C435.295 735.755 434.468 736.724 433.032 737.569C430.126 739.279 424.937 740.351 417.028 740.021C408.545 739.667 401.671 740.83 396.654 742.854C391.676 744.862 388.364 747.793 387.345 751.085C386.285 754.506 387.809 757.905 391.565 760.47C395.291 763.015 401.325 764.856 409.78 765.399C506.032 771.583 584.611 729.508 641.118 662.571C697.608 595.653 732.056 503.878 740.151 410.528C748.245 317.179 729.994 222.152 680.955 148.754C631.892 75.3202 552.059 23.6114 437.195 16.8888L437.183 16.8881L437.171 16.8877C411.023 15.9861 386.564 12.4209 362.354 8.89182C353.815 7.64711 345.307 6.4069 336.767 5.28964C304.044 1.00897 270.94 -1.44826 234.14 4.68399ZM248.319 536.638L248.323 536.641C271.533 556.182 297.843 578.207 324.164 595.956C350.46 613.687 376.903 627.247 400.375 629.717C493.834 639.553 562.561 570.703 599.284 507.067C605.429 497.01 610.168 485.459 614.584 473.518C619.964 458.972 626.598 450.07 633.053 445.704C639.456 441.373 645.661 441.496 650.545 444.932C655.503 448.42 659.303 455.463 660.428 465.362C661.552 475.237 659.995 487.849 654.357 502.275C632.338 558.615 602.672 607.923 562.561 640.888C522.484 673.823 471.922 690.494 407.951 681.486L407.943 681.485C280.085 664.44 172.206 561.518 125.57 443.882C78.9452 326.272 93.6401 194.305 210.409 118.904L210.429 118.892L210.448 118.878C218.881 112.855 234.655 105.563 252.949 99.4662C271.225 93.375 291.91 88.5128 310.127 87.2985L310.138 87.2978C325.876 86.0873 355.089 89.728 375.827 94.3019C381.002 95.4433 385.629 96.6385 389.372 97.8244C393.142 99.0189 395.926 100.178 397.479 101.219C398.283 101.757 398.582 102.152 398.655 102.356C398.679 102.422 398.67 102.441 398.665 102.454C398.655 102.484 398.608 102.584 398.424 102.739C398.035 103.065 397.256 103.452 395.915 103.834C394.612 104.205 392.872 104.548 390.639 104.847C385.852 104.843 380.883 104.322 376.134 103.529C311.095 92.6575 261.372 106.525 225.708 135.5C190.066 164.456 168.585 208.402 159.804 257.479C142.25 355.579 175.367 474.638 248.319 536.638ZM451.504 593.626C436.985 597.953 420.912 599.748 403.002 598.405C348.977 594.157 301.859 563.198 265.739 519.244C229.619 475.292 204.562 418.416 194.662 362.529C184.759 306.626 190.043 251.849 214.424 212.006C238.758 172.238 282.217 147.179 349.105 150.826C370.445 152.082 401.621 160.495 424.391 170.024C430.468 172.567 434.106 175.011 435.833 177.099C436.687 178.132 437.009 178.999 437.021 179.692C437.033 180.357 436.762 181.012 436.1 181.657C434.71 183.009 431.773 184.13 427.373 184.627C423.029 185.119 417.438 184.983 410.946 184.001C351.952 175.072 304.215 184.874 269.816 206.379C235.413 227.886 214.42 261.061 208.879 298.718C200.26 351.672 228.578 414.875 271.112 465.357C313.646 515.839 370.697 553.956 419.977 556.421C435.282 557.323 450.427 564.79 458.019 573.031C461.832 577.17 463.554 581.292 462.808 584.76C462.073 588.174 458.827 591.443 451.504 593.626ZM443.496 399.288C442.552 409.515 436.029 417.192 427.201 421.483C418.36 425.78 407.281 426.633 397.439 423.217C377.732 416.378 363.704 402.297 357.771 387.024C351.846 371.771 353.992 355.373 366.543 343.629C374.65 336.042 385.297 333.959 395.833 335.917C406.384 337.876 416.76 343.883 424.172 352.371C436.242 366.193 445.024 382.733 443.496 399.288ZM261.034 300.356C264.208 297.063 267.492 295.479 270.54 295.148C273.585 294.817 276.491 295.727 278.945 297.599C283.867 301.356 286.979 309.027 285.308 318.087C267.447 414.941 350.111 497.53 443.089 500.663C395.913 504.612 347.706 491.234 311.802 462.582C271.271 430.237 246.358 378.383 256.347 309.813C256.871 306.216 258.5 302.985 261.034 300.356ZM571.733 256.16C574.215 257.418 576.245 259.486 577.217 262.018C591.139 298.301 595.957 343.647 588.503 398.09C587.6 404.681 584.919 410.459 582.661 412.883C582.099 413.486 581.637 413.8 581.314 413.914C581.05 414.008 580.957 413.956 580.873 413.882C580.712 413.741 580.453 413.35 580.268 412.449C580.088 411.574 580.002 410.344 580.066 408.694C580.34 401.657 581.297 392.737 582.278 384.102C582.416 382.894 582.554 381.692 582.69 380.501C583.527 373.201 584.314 366.335 584.623 361.341C584.788 358.684 584.278 356.067 583.34 353.63C573.631 328.408 563.792 303.217 551.537 280.103C548.435 274.251 550.4 266.743 554.869 261.376C559.343 256.004 565.927 253.219 571.733 256.16ZM639.346 314.88C638.977 309.972 638.62 305.105 638.266 300.283C635.766 266.233 633.428 234.377 628.201 205.584C623.479 179.578 616.391 156.008 604.659 135.51C643.387 182.769 679.584 233.195 689.904 304.23C691.006 311.816 688.05 318.367 682.836 323.327C677.604 328.304 670.121 331.648 662.325 332.712C651.297 334.216 640.173 325.878 639.346 314.88Z" fill="#33B9FF" stroke="#1364FF" stroke-width="2"/>
</svg>
