<svg width="1644" height="1555" viewBox="0 0 1644 1555" fill="none" xmlns="http://www.w3.org/2000/svg">
<path fill-rule="evenodd" clip-rule="evenodd" d="M1247.79 1422.78C1325.86 1316.32 1524.57 1224.06 1531.67 1089.22C1070.36 1642.78 222.328 1369.61 105.267 734.464C20.0886 1089.3 641.013 1667.64 892.958 1401.51C974.564 1490.21 1063.27 1465.37 1173.27 1461.81C1081.01 1532.78 992.305 1507.95 903.594 1554.08C342.96 1568.31 -235.381 918.994 98.1847 450.599C186.899 326.403 303.996 273.172 410.451 173.814C1180.47 -511.051 2223.6 1021.77 1247.79 1422.78ZM474.304 493.159C62.68 862.205 864.573 1358.93 1205.23 1067.95C1357.81 936.652 1297.5 748.595 1226.54 578.279C1247.82 727.307 1293.94 865.689 1166.2 979.242C1017.16 1114.09 616.205 1089.27 488.475 911.859C385.581 773.48 424.624 557.031 687.207 407.989C694.306 365.408 538.176 436.383 474.304 493.159ZM995.891 780.545C995.897 674.096 875.254 667.006 804.287 681.203C712.024 816.043 892.984 897.645 995.891 780.545ZM573.646 698.956C555.902 752.182 562.996 801.858 562.993 851.534C733.299 1092.81 1017.17 1021.83 1144.92 837.311C985.233 1025.38 637.5 1004.11 573.646 698.956ZM960.432 319.266C882.368 347.657 807.854 337.016 726.24 383.148C861.078 340.561 988.814 397.328 1116.55 454.094C1141.39 478.931 1215.9 588.925 1208.8 539.249C1130.75 425.707 1045.59 354.745 960.432 319.266ZM786.576 95.7317C917.863 113.466 1027.85 223.458 1166.23 340.545C1205.27 301.512 1198.17 287.319 1247.85 266.027C1102.37 127.65 942.701 109.917 786.576 95.7317ZM1354.28 649.239C1393.3 794.718 1393.29 993.423 1244.26 1114.07C1169.74 1174.4 1013.61 1188.6 889.42 1199.25C495.555 1231.21 -1.18051 691.89 460.117 379.614C463.665 376.065 467.214 372.517 470.762 368.968C516.893 308.645 367.859 408.005 325.277 457.684C275.597 514.459 233.013 606.718 225.914 649.298C105.242 1209.94 910.694 1504.41 1332.96 1181.49C1620.38 965.025 1492.66 617.297 1301.07 326.345C1223 439.895 1329.44 546.339 1354.28 649.239Z" fill="#38CFFF"/>
</svg>
