<svg width="1571" height="1552" viewBox="0 0 1571 1552" fill="none" xmlns="http://www.w3.org/2000/svg">
<path d="M1562.4 473.357L1562.4 473.359C1574.97 547.908 1569.93 614.986 1561.15 681.367C1558.86 698.671 1556.31 715.922 1553.76 733.243C1546.51 782.4 1539.17 832.125 1537.32 885.262L1537.32 885.274L1537.32 885.286C1523.53 1118.16 1417.47 1279.93 1266.89 1379.32C1116.36 1478.69 921.409 1515.69 729.852 1499.23C538.293 1482.78 350.021 1412.86 212.817 1298.29C75.593 1183.71 -10.5619 1024.43 2.25895 829.343C3.3889 812.149 7.1587 800.02 12.2416 792.614C17.3454 785.177 23.8903 782.39 30.3361 784.366C36.6552 786.303 42.4929 792.719 46.5556 802.761C50.6337 812.841 52.9983 826.736 52.2626 843.968C51.5689 860.215 53.753 871.077 57.413 877.286C59.2328 880.374 61.386 882.261 63.6866 883.143C65.9792 884.023 68.535 883.95 71.2574 882.904C76.755 880.791 82.8128 874.74 88.1126 865.05C93.3928 855.397 97.8479 842.26 100.216 826.202C164.278 391.834 568.059 118.242 968.113 145.357C991.736 146.958 1011.47 144.981 1026.32 140.878C1041.22 136.761 1051.01 130.556 1055.03 123.862C1057.02 120.551 1057.59 117.128 1056.71 113.715C1055.81 110.279 1053.41 106.742 1049.23 103.299C1040.86 96.3992 1025.59 90.0755 1002.27 85.8496C866.101 61.174 716.568 65.8901 592.976 99.8499C469.335 133.823 371.923 196.978 339.522 288.96C325.574 328.558 286.605 362.307 247.381 376.89C231.014 382.975 216.631 386.447 204.813 387.274C193.02 388.099 183.637 386.298 177.421 381.663C171.136 376.976 168.287 369.542 169.264 359.617C170.237 349.734 175 337.294 184.008 322.326C191.357 310.115 198.106 297.355 203.812 283.584C208.874 271.368 215.46 259.624 224.97 250.274C421.701 56.8647 732.409 -26.0139 1005.7 8.71498C1279 43.4447 1515.2 195.86 1562.4 473.357ZM471.784 502.638L471.787 502.635C599.337 354.297 844.9 287.199 1046.54 323.756C1147.38 342.04 1237.36 386.271 1296.11 459.361C1354.88 532.475 1382.31 634.343 1358.28 767.668C1357.29 773.181 1356.68 779.015 1356.68 784.597L1356.68 784.609L1356.68 784.621L1356.68 784.634L1356.68 784.646L1356.68 784.659L1356.68 784.671L1356.68 784.684L1356.68 784.696L1356.68 784.709L1356.68 784.721L1356.68 784.734L1356.68 784.746L1356.68 784.759L1356.68 784.771L1356.68 784.784L1356.68 784.796L1356.68 784.809L1356.68 784.821L1356.68 784.833L1356.68 784.846L1356.68 784.858L1356.68 784.871L1356.68 784.883L1356.68 784.896L1356.68 784.908L1356.68 784.921L1356.68 784.933L1356.68 784.946L1356.68 784.958L1356.68 784.971L1356.68 784.983L1356.68 784.996L1356.68 785.008L1356.68 785.021L1356.68 785.033L1356.68 785.045L1356.68 785.058L1356.68 785.07L1356.68 785.083L1356.68 785.095L1356.68 785.108L1356.68 785.12L1356.68 785.133L1356.68 785.145L1356.68 785.158L1356.68 785.17L1356.68 785.183L1356.68 785.195L1356.68 785.208L1356.68 785.22L1356.68 785.233L1356.68 785.245L1356.68 785.257L1356.68 785.27L1356.68 785.282L1356.68 785.295L1356.68 785.307L1356.68 785.32L1356.68 785.332L1356.68 785.345L1356.68 785.357L1356.68 785.37L1356.68 785.382L1356.68 785.395L1356.68 785.407L1356.68 785.42L1356.68 785.432L1356.68 785.445L1356.68 785.457L1356.68 785.469L1356.68 785.482L1356.68 785.494L1356.68 785.507L1356.68 785.519L1356.68 785.532L1356.68 785.544L1356.68 785.557L1356.68 785.569L1356.68 785.582L1356.68 785.594L1356.68 785.607L1356.68 785.619L1356.68 785.632L1356.68 785.644L1356.68 785.657L1356.68 785.669L1356.68 785.682L1356.68 785.694L1356.68 785.706L1356.68 785.719L1356.68 785.731L1356.68 785.744L1356.68 785.756L1356.68 785.769L1356.68 785.781L1356.68 785.794L1356.68 785.806L1356.68 785.819L1356.68 785.831L1356.68 785.844L1356.68 785.856L1356.68 785.869L1356.68 785.881L1356.68 785.893L1356.68 785.906L1356.68 785.918L1356.68 785.931L1356.68 785.943L1356.68 785.956L1356.68 785.968L1356.68 785.981L1356.68 785.993L1356.68 786.006L1356.68 786.018L1356.68 786.031L1356.68 786.043L1356.68 786.056L1356.68 786.068L1356.68 786.081L1356.68 786.093L1356.68 786.106L1356.68 786.118L1356.68 786.13L1356.68 786.143L1356.68 786.155L1356.68 786.168L1356.68 786.18L1356.68 786.193L1356.68 786.205L1356.68 786.218L1356.68 786.23L1356.68 786.243L1356.68 786.255L1356.68 786.268L1356.68 786.28L1356.68 786.293L1356.68 786.305L1356.68 786.318L1356.68 786.33L1356.68 786.342L1356.68 786.355L1356.68 786.367L1356.68 786.38L1356.68 786.392L1356.68 786.405L1356.68 786.417L1356.68 786.43L1356.68 786.442L1356.68 786.455L1356.68 786.467L1356.68 786.48L1356.68 786.492L1356.68 786.505L1356.68 786.517L1356.68 786.53L1356.68 786.542L1356.68 786.555L1356.68 786.567L1356.68 786.579L1356.68 786.592L1356.68 786.604L1356.68 786.617L1356.68 786.629L1356.68 786.642L1356.68 786.654L1356.68 786.667L1356.68 786.679L1356.68 786.692L1356.68 786.704L1356.68 786.717L1356.68 786.729L1356.68 786.742L1356.68 786.754L1356.68 786.766L1356.68 786.779L1356.68 786.791L1356.68 786.804L1356.68 786.816L1356.68 786.829L1356.68 786.841L1356.68 786.854L1356.68 786.866L1356.68 786.879L1356.68 786.891L1356.68 786.904L1356.68 786.916L1356.68 786.929L1356.68 786.941L1356.68 786.954L1356.68 786.966L1356.68 786.979L1356.68 786.991L1356.68 787.003L1356.68 787.016L1356.68 787.028L1356.68 787.041L1356.68 787.053L1356.68 787.066L1356.68 787.078L1356.68 787.091L1356.68 787.103L1356.68 787.116L1356.68 787.128L1356.68 787.141L1356.68 787.153L1356.68 787.166L1356.68 787.178L1356.68 787.19L1356.68 787.203L1356.68 787.215L1356.68 787.228L1356.68 787.24L1356.68 787.253L1356.68 787.265L1356.68 787.278L1356.68 787.29L1356.68 787.303L1356.68 787.315L1356.68 787.328L1356.68 787.34L1356.68 787.353L1356.68 787.365L1356.68 787.378L1356.68 787.39L1356.68 787.403L1356.68 787.415L1356.68 787.427L1356.68 787.44L1356.68 787.452L1356.68 787.465L1356.68 787.477L1356.68 787.49L1356.68 787.502L1356.68 787.515L1356.68 787.527L1356.68 787.54L1356.68 787.552L1356.68 787.565L1356.68 787.577L1356.68 787.59L1356.68 787.602L1356.68 787.615L1356.68 787.627L1356.68 787.639L1356.68 787.652L1356.68 787.664L1356.68 787.677L1356.68 787.689L1356.68 787.702L1356.68 787.714L1356.68 787.727L1356.68 787.739L1356.68 787.752L1356.68 787.764L1356.68 787.777L1356.68 787.789L1356.68 787.802L1356.68 787.814L1356.68 787.827L1356.68 787.839L1356.68 787.852L1356.68 787.864L1356.68 787.876L1356.68 787.889L1356.68 787.901L1356.68 787.914L1356.68 787.926L1356.68 787.939L1356.68 787.951L1356.68 787.964L1356.68 787.976L1356.68 787.989L1356.68 788.001L1356.68 788.014L1356.68 788.026L1356.68 788.039L1356.68 788.051L1356.68 788.063L1356.68 788.076L1356.68 788.088L1356.68 788.101L1356.68 788.113L1356.68 788.126L1356.68 788.138L1356.68 788.151L1356.68 788.163L1356.68 788.176L1356.68 788.188L1356.68 788.201L1356.68 788.213L1356.68 788.226L1356.68 788.238L1356.68 788.251L1356.68 788.263L1356.68 788.276L1356.68 788.288L1356.68 788.3L1356.68 788.313L1356.68 788.325L1356.68 788.338L1356.68 788.35L1356.68 788.363L1356.68 788.375L1356.68 788.388L1356.68 788.4L1356.68 788.413L1356.68 788.425L1356.68 788.438L1356.68 788.45L1356.68 788.463L1356.68 788.475L1356.68 788.487L1356.68 788.5L1356.68 788.512L1356.68 788.525L1356.68 788.537L1356.68 788.55L1356.68 788.562L1356.68 788.575L1356.68 788.587L1356.68 788.6L1356.68 788.612L1356.68 788.625L1356.68 788.637L1356.68 788.65L1356.68 788.662L1356.68 788.675L1356.68 788.687L1356.68 788.7L1356.68 788.712L1356.68 788.724L1356.68 788.737L1356.68 788.749L1356.68 788.762L1356.68 788.774L1356.68 788.787L1356.68 788.799L1356.68 788.812L1356.68 788.824L1356.68 788.837L1356.68 788.849L1356.68 788.862L1356.68 788.874L1356.68 788.887L1356.68 788.899L1356.68 788.912L1356.68 788.924L1356.68 788.936L1356.68 788.949L1356.68 788.961L1356.68 788.974L1356.68 788.986L1356.68 788.999L1356.68 789.011L1356.68 789.024L1356.68 789.036L1356.68 789.049L1356.68 789.061L1356.68 789.074L1356.68 789.086L1356.68 789.099L1356.68 789.111L1356.68 789.124L1356.68 789.136L1356.68 789.149L1356.68 789.161L1356.68 789.173L1356.68 789.186L1356.68 789.198L1356.68 789.211L1356.68 789.223L1356.68 789.236L1356.68 789.248L1356.68 789.261L1356.68 789.273L1356.68 789.286L1356.68 789.298L1356.68 789.311L1356.68 789.323L1356.68 789.336L1356.68 789.348L1356.68 789.36L1356.68 789.373L1356.68 789.385L1356.68 789.398L1356.68 789.41L1356.68 789.423L1356.68 789.435L1356.68 789.448L1356.68 789.46L1356.68 789.473L1356.68 789.485L1356.68 789.498L1356.68 789.51L1356.68 789.523L1356.68 789.535L1356.68 789.548L1356.68 789.56L1356.68 789.573L1356.68 789.585L1356.68 789.597L1356.68 789.61L1356.68 789.622L1356.68 789.635L1356.68 789.647L1356.68 789.66L1356.68 789.672L1356.68 789.685L1356.68 789.697L1356.68 789.71L1356.68 789.722L1356.68 789.735L1356.68 789.747L1356.68 789.76L1356.68 789.772L1356.68 789.784L1356.68 789.797L1356.68 789.809L1356.68 789.822L1356.68 789.834L1356.68 789.847L1356.68 789.859L1356.68 789.872L1356.68 789.884L1356.68 789.897L1356.68 789.909L1356.68 789.922L1356.68 789.934L1356.68 789.947L1356.68 789.959L1356.68 789.972L1356.68 789.984L1356.68 789.997L1356.68 790.009L1356.68 790.021L1356.68 790.034L1356.68 790.046L1356.68 790.059L1356.68 790.071L1356.68 790.084L1356.68 790.096L1356.68 790.109L1356.68 790.121L1356.68 790.134L1356.68 790.146L1356.68 790.159L1356.68 790.171L1356.68 790.184L1356.68 790.196L1356.68 790.209L1356.68 790.221L1356.68 790.233L1356.68 790.246L1356.68 790.258L1356.68 790.271L1356.68 790.283L1356.68 790.296L1356.68 790.308L1356.68 790.321L1356.68 790.333L1356.68 790.346L1356.68 790.358L1356.68 790.371L1356.68 790.383L1356.68 790.396L1356.68 790.408L1356.68 790.421L1356.68 790.433L1356.68 790.446L1356.68 790.458L1356.68 790.47L1356.68 790.483L1356.68 790.495L1356.68 790.508L1356.68 790.52L1356.68 790.533L1356.68 790.545L1356.68 790.558L1356.68 790.57L1356.68 790.583L1356.68 790.595L1356.68 790.608L1356.68 790.62L1356.68 790.633L1356.68 790.645L1356.68 790.657L1356.68 790.67L1356.68 790.682L1356.68 790.695L1356.68 790.707L1356.68 790.72L1356.68 790.732L1356.68 790.745L1356.68 790.757L1356.68 790.77L1356.68 790.782L1356.68 790.795L1356.68 790.807L1356.68 790.82L1356.68 790.832L1356.68 790.845L1356.68 790.857L1356.68 790.87L1356.68 790.882L1356.68 790.894L1356.68 790.907L1356.68 790.915C1357.3 795.507 1358.02 799.114 1358.8 801.836C1359.6 804.597 1360.44 806.349 1361.25 807.307C1361.65 807.776 1362.01 808.01 1362.3 808.111C1362.58 808.206 1362.87 808.208 1363.21 808.087C1363.96 807.821 1364.93 806.968 1366.06 805.301C1368.29 802.018 1370.71 796.246 1373.16 788.584C1375.61 780.949 1378.07 771.525 1380.42 761.002C1389.82 718.874 1397.32 659.465 1394.83 627.371L1394.83 627.36C1392.32 590.271 1382.31 548.196 1369.79 511.046C1357.25 473.879 1342.24 441.748 1329.78 424.508L1329.77 424.489L1329.75 424.469C1174.55 186.904 902.911 157.107 661.078 251.864C419.22 346.631 207.533 565.867 172.468 825.838L172.467 825.845C150.568 979.541 202.405 1095.31 296.164 1182.77C389.973 1270.28 525.782 1329.49 671.8 1369.86C701.566 1378.09 728.095 1368.04 740.679 1351.99C746.963 1343.97 749.759 1334.48 747.838 1324.98C745.917 1315.47 739.243 1305.79 726.257 1297.48C697.31 1278.94 662.978 1266.46 628.752 1254.35C627.307 1253.84 625.862 1253.33 624.418 1252.82C591.705 1241.26 559.299 1229.8 532.252 1213.47C401.684 1139 260.739 999.81 280.874 810.717C285.92 763.335 313.641 709.839 350.038 656.491C386.452 603.117 431.647 549.755 471.784 502.638ZM1264.36 706.6C1271.87 570.514 1220.27 481.915 1138.22 432.296C1056.1 382.63 943.313 371.919 828.355 392.045C713.415 412.169 596.441 463.101 506.027 536.537C415.612 609.974 351.832 705.849 343.079 815.863C340.283 852.723 344.09 885.784 353.224 915.631C357.802 930.589 364.704 937.549 372.255 939.065C379.867 940.592 388.636 936.703 397.179 928.77C414.228 912.938 429.542 881.737 431.405 850.45C436.445 750.836 514.471 635.277 618.05 549.021C721.632 462.761 851.126 405.509 959.426 422.934C1040.88 434.777 1112.07 481.545 1155.66 558.386C1199.24 635.221 1215.18 742.044 1186.3 873.966C1184.89 880.41 1184.6 886.538 1185.18 891.744C1185.76 896.969 1187.2 901.187 1189.16 903.877C1191.09 906.535 1193.44 907.605 1196.02 906.953C1198.74 906.268 1202.02 903.622 1205.55 898.029C1218.58 877.384 1232.43 843.941 1243.46 808.406C1254.48 772.878 1262.65 735.364 1264.36 706.6ZM695.256 837.049C692.618 858.073 701.887 879.61 720.507 889.424C748.522 904.191 777.536 901.487 804.529 889.476C831.544 877.454 856.468 856.131 876.143 833.807C891.268 816.645 896.826 792.39 887.71 771.549C876.564 746.07 859.9 730.173 841.001 722.417C822.091 714.657 800.845 715.007 780.479 722.207C739.735 736.611 702.615 778.406 695.256 837.049ZM920.229 578.175C939.054 581.644 955.074 575.21 962.933 564.818C966.856 559.631 968.758 553.452 968.003 546.965C967.249 540.475 963.823 533.581 956.917 527.002C951.398 521.744 944.621 518.354 937.094 517.268C795.856 496.89 688.955 547.588 622.272 630.15C559.455 707.924 532.285 814.028 545.809 915.775C541.339 720.03 715.375 540.415 920.229 578.175ZM1035.33 1170.52C1040.82 1168.44 1045.26 1164.1 1047.96 1158.82C1054.37 1146.32 1048.43 1132.37 1037.38 1123.08C1026.33 1113.8 1010.6 1109.55 998.061 1116.14C950.444 1141.17 898.487 1161.22 846.4 1181.04C841.534 1182.89 836.341 1183.89 831.093 1183.57C820.867 1182.94 806.762 1181.35 791.719 1179.64C783.807 1178.74 775.636 1177.82 767.633 1176.99C756.002 1175.78 744.713 1174.78 735.04 1174.36C725.338 1173.95 717.359 1174.12 712.298 1175.22C710.722 1175.56 709.826 1176.02 709.371 1176.44C708.985 1176.8 708.901 1177.15 709.002 1177.59C709.123 1178.11 709.533 1178.81 710.327 1179.64C711.105 1180.45 712.177 1181.32 713.481 1182.21C718.723 1185.76 727.25 1189.24 733.746 1190.29C855.344 1209.81 955.861 1200.66 1035.33 1170.52ZM947.735 1399.4C1099.86 1377.75 1206.06 1299.11 1306.53 1217.03C1261.75 1245.24 1209.16 1261.55 1150.43 1272.07C1091.42 1282.64 1026.14 1287.38 956.297 1292.45C946.212 1293.18 936.032 1293.92 925.762 1294.68C902.838 1296.39 885.566 1319.51 888.724 1342.38C890.933 1358.38 897.808 1373.8 908.081 1384.62C918.337 1395.44 931.947 1401.65 947.735 1399.4Z" fill="#33B9FF" stroke="#1364FF" stroke-width="2"/>
</svg>
