<svg width="141" height="108" viewBox="0 0 141 108" fill="none" xmlns="http://www.w3.org/2000/svg">
<path fill-rule="evenodd" clip-rule="evenodd" d="M47.5608 70.3988C44.6067 67.229 39.4025 65.3589 44.0855 58.528C50.4787 55.9604 52.4816 62.6803 55.1112 65.2874C107.721 10.8935 232.471 58.1133 212.302 144.03C204.001 180.332 175.414 210.722 142.753 211.959C163.52 189.461 187.73 180.728 198.13 145.465C211.978 97.3315 179.578 56.7827 134.062 47.4405C99.4296 40.0634 53.1951 60.0177 36.4982 92.1673C3.54788 156.585 64.1227 210.867 127.067 217.269C97.6982 234.608 50.6733 202.507 33.9314 178.044C14.5921 149.081 15.1004 99.2758 47.5608 70.3988Z" fill="#2B74FF"/>
<path fill-rule="evenodd" clip-rule="evenodd" d="M61.738 42.3303C64.3996 43.0435 64.4637 39.2556 68.0993 41.6566C69.215 48.1388 61.2852 49.3434 61.738 42.3303Z" fill="#2B74FF"/>
<path fill-rule="evenodd" clip-rule="evenodd" d="M87.915 22.7092C93.8327 21.9167 98.767 26.5682 96.5398 33.1059C90.0597 34.2233 83.5567 30.1027 87.915 22.7092Z" fill="#2B74FF"/>
<path fill-rule="evenodd" clip-rule="evenodd" d="M106.276 30.4828C107.314 28.3828 110.062 30.5461 112.28 31.1404C116.762 42.8051 95.9131 37.2187 106.276 30.4828Z" fill="#2B74FF"/>
<path fill-rule="evenodd" clip-rule="evenodd" d="M51.2558 95.6459C49.9386 107.659 38.4095 124.071 44.016 135.086C55.2531 70.0817 134.972 52.9163 173.312 97.9106C163.828 65.8802 88.1479 48.4555 80.3548 81.0883C69.8275 77.7919 63.9327 83.8225 55.3763 89.1399C59.4419 79.2898 67.6096 77.1976 72.5304 69.4792C116.318 42.6861 191.871 67.6866 186.862 120.091C185.513 133.998 178.667 143.579 174.775 156.329C145.076 245.876 -7.74314 172.109 51.2558 95.6459ZM155.102 133.935C170.843 85.8338 84.5529 83.1645 70.865 121.828C64.7779 139.222 78.1633 151.37 91.5807 161.624C83.0748 150.784 73.0873 141.924 78.0173 127.074C83.6608 109.561 116.578 93.1726 134.82 101.39C149.308 107.65 156.117 126.597 142.123 150.434C143.509 154.135 152.637 141.36 155.102 133.935ZM100.608 135.03C105.479 143.469 115.366 138.508 120.341 134.134C121.485 119.22 103.407 121.035 100.608 135.03ZM137.811 122.168C136.782 117.136 133.947 113.522 131.674 109.584C107.135 98.2523 87.8816 116.875 86.1984 137.352C90.2506 115.132 118.787 100.899 137.811 122.168ZM124.525 169.976C129.414 164.151 135.807 161.584 140.166 154.19C131.426 163.739 118.704 165.087 105.981 166.434C102.876 165.602 91.9374 160.293 94.7727 163.906C106.155 169.334 116.152 171.062 124.525 169.976ZM148.534 179.738C137.316 184.343 123.565 180.658 107.239 177.71C105.931 182.592 107.143 183.392 104.179 187.354C122.042 191.665 135.51 185.761 148.534 179.738ZM78.2089 161.846C68.4591 152.099 59.368 136.346 65.6608 119.958C68.8072 111.764 80.5328 103.491 89.8895 96.9608C119.647 76.3965 183.698 96.4127 161.422 142.287C161.303 142.731 161.184 143.175 161.065 143.619C160.169 150.513 167.435 135.813 168.538 129.925C169.878 123.15 169.032 113.886 167.646 110.186C151.559 60.2144 74.2406 73.7425 55.5451 118.674C42.6667 148.993 68.7012 170.714 97.2007 185.009C98.1933 172.433 84.8855 168.867 78.2089 161.846Z" fill="#2B74FF"/>
</svg>
