<svg width="967" height="998" viewBox="0 0 967 998" fill="none" xmlns="http://www.w3.org/2000/svg">
<path fill-rule="evenodd" clip-rule="evenodd" d="M583.081 37.6316C499.94 50.4152 368.834 2.47691 304.879 60.0027C762.153 18.4563 1021.17 523.405 787.735 862.168C985.993 740.725 966.807 200.621 733.374 207.013C736.571 130.312 685.408 101.549 634.244 53.611C707.792 63.1987 736.571 114.333 797.328 133.508C1056.34 379.591 1024.37 932.477 663.024 993.199C567.092 1009.18 490.347 980.416 397.613 977.22C-257.919 938.869 -37.2766 -221.234 583.081 37.6316ZM512.731 804.642C864.48 823.818 726.978 238.972 442.381 216.601C314.473 207.013 256.914 318.869 212.146 427.529C269.704 350.828 311.275 267.735 419.997 274.127C547.906 280.518 717.385 472.271 695.001 609.694C679.012 718.354 563.895 798.25 378.427 747.116C356.043 763.096 458.37 801.446 512.731 804.642ZM407.206 440.312C359.241 488.25 410.404 545.776 448.777 571.343C551.104 552.168 506.336 433.92 407.206 440.312ZM560.697 667.219C592.674 651.24 611.86 625.673 634.244 603.302C666.222 417.941 506.336 322.065 365.636 347.632C522.324 334.848 669.419 501.034 560.697 667.219ZM215.343 664.024C263.309 686.395 292.089 724.745 349.647 740.725C269.704 699.178 237.727 616.086 205.75 532.993C205.75 510.622 221.739 427.529 202.552 453.096C186.564 539.384 192.959 609.694 215.343 664.024ZM192.959 842.993C141.796 775.879 141.796 676.807 132.203 561.756C97.0277 561.756 93.8301 571.343 61.8529 558.56C65.0507 686.395 129.005 766.292 192.959 842.993ZM186.564 338.044C234.53 254.951 324.066 165.467 445.579 178.25C506.336 184.642 583.081 248.559 643.838 299.694C835.701 462.683 816.514 929.281 467.963 862.168C464.765 862.168 461.568 862.168 458.37 862.168C410.404 868.56 522.324 890.931 563.895 887.735C611.86 884.539 672.617 862.168 695.001 846.189C1001.98 648.044 771.746 152.683 435.986 107.941C208.948 75.9821 109.819 290.106 65.0506 507.426C151.389 491.446 151.389 395.57 186.564 338.044Z" fill="#38CFFF"/>
</svg>
