<svg width="2111" height="1858" viewBox="0 0 2111 1858" fill="none" xmlns="http://www.w3.org/2000/svg">
<path d="M278.232 1377.41C354.108 1508.83 509.613 1578.06 700.231 1583.33C890.811 1588.59 1116.15 1529.88 1330.99 1405.84C1545.83 1281.8 1709.35 1116.01 1800.07 948.331C1890.82 780.618 1908.62 611.333 1832.75 479.912C1756.87 348.491 1601.37 279.265 1410.75 273.998C1220.17 268.733 994.835 327.441 779.99 451.482C565.145 575.523 401.635 741.313 310.905 908.993C220.157 1076.71 202.356 1245.99 278.232 1377.41Z" fill="#1660ED" stroke="#38CFFF" stroke-width="4"/>
<path d="M1832.75 1377.41C1756.87 1508.83 1601.37 1578.06 1410.75 1583.33C1220.17 1588.59 994.834 1529.88 779.99 1405.84C565.145 1281.8 401.635 1116.01 310.905 948.331C220.157 780.618 202.356 611.333 278.232 479.912C354.108 348.491 509.613 279.265 700.231 273.998C890.811 268.733 1116.15 327.441 1330.99 451.482C1545.83 575.523 1709.34 741.313 1800.07 908.993C1890.82 1076.71 1908.62 1245.99 1832.75 1377.41Z" fill="#1660ED" stroke="#38CFFF" stroke-width="4"/>
<path d="M1952.99 878.162C1952.99 1015.87 1853.05 1140.96 1690.56 1231.74C1528.13 1322.48 1303.6 1378.66 1055.49 1378.66C807.376 1378.66 582.85 1322.48 420.423 1231.74C257.93 1140.96 157.99 1015.87 157.99 878.162C157.99 740.451 257.93 615.362 420.423 524.587C582.85 433.848 807.376 377.662 1055.49 377.662C1303.6 377.662 1528.13 433.848 1690.56 524.587C1853.05 615.362 1952.99 740.451 1952.99 878.162Z" fill="#1660ED" stroke="#38CFFF" stroke-width="4"/>
</svg>
