<svg width="186" height="165" viewBox="0 0 186 165" fill="none" xmlns="http://www.w3.org/2000/svg">
<path fill-rule="evenodd" clip-rule="evenodd" d="M70.4829 0.280518C67.6199 1.09944 67.2109 6.83191 69.2559 8.87922C72.1189 9.28868 74.1639 8.87922 75.3908 7.65083C76.2088 3.14675 74.5729 0.68998 70.4829 0.280518Z" fill="#FFF61B"/>
<path fill-rule="evenodd" clip-rule="evenodd" d="M92.5688 13.7928C50.0332 9.69816 15.6774 49.8255 18.9494 93.6379C20.1764 112.473 31.2193 128.033 45.9432 131.718C3.40751 89.9527 43.0802 -6.27086 112.201 23.6199C108.929 14.6117 100.34 14.6117 92.5688 13.7928Z" fill="#FFF61B"/>
<path fill-rule="evenodd" clip-rule="evenodd" d="M172.732 49.4163C169.869 53.1014 172.323 58.8339 176.413 59.2434C176.822 58.4244 177.64 58.015 178.867 58.015C180.503 54.3298 179.276 52.692 177.64 49.4163C176.004 49.4163 174.368 49.4163 172.732 49.4163Z" fill="#FFF61B"/>
<path fill-rule="evenodd" clip-rule="evenodd" d="M110.156 51.873C110.156 53.5109 110.156 55.1487 110.156 56.7866C113.837 58.015 113.837 58.015 117.518 56.7866C117.518 55.1487 117.518 53.5109 117.518 51.873C115.882 50.2352 111.383 50.2352 110.156 51.873Z" fill="#FFF61B"/>
<path fill-rule="evenodd" clip-rule="evenodd" d="M121.199 58.0146C124.471 58.4241 126.515 57.6052 126.106 54.3295C124.471 54.3295 124.47 52.6917 122.426 53.1011C122.017 54.739 120.381 55.5579 121.199 58.0146Z" fill="#FFF61B"/>
<path fill-rule="evenodd" clip-rule="evenodd" d="M7.90651 67.023C-8.45336 72.7555 6.27052 48.1878 7.90651 67.023V67.023Z" fill="#FFF61B"/>
<path fill-rule="evenodd" clip-rule="evenodd" d="M81.5258 84.2204C83.1618 90.7718 98.2947 100.599 106.066 100.189C118.336 99.3705 123.653 82.992 120.79 68.2514C102.794 53.1013 76.6179 63.3378 81.5258 84.2204ZM108.929 90.3623C89.2968 94.4569 82.7528 75.2122 95.4317 67.023C92.5688 73.1649 92.1598 87.0866 102.794 86.6772C108.111 86.6772 115.882 78.0785 107.702 71.9365C117.518 68.2514 112.61 86.2677 108.929 90.3623Z" fill="#FFF61B"/>
<path fill-rule="evenodd" clip-rule="evenodd" d="M175.186 81.7628C161.689 117.795 146.965 153.009 99.1127 151.781C90.5238 151.781 82.7528 146.867 73.3459 149.324C94.2047 162.836 133.877 155.057 148.192 140.725C138.376 150.962 127.742 159.151 111.383 160.38C78.2539 163.246 54.1231 141.954 32.8552 130.898C52.8961 168.569 139.194 182.081 158.417 134.583C154.327 133.355 153.1 141.544 151.055 138.269C162.916 125.166 178.458 102.236 175.186 81.7628Z" fill="#FFF61B"/>
<path fill-rule="evenodd" clip-rule="evenodd" d="M181.321 107.56C178.049 110.017 178.458 114.93 183.775 114.93C185.002 113.702 185.411 111.654 185.002 108.788C183.366 108.788 182.139 107.969 181.321 107.56Z" fill="#FFF61B"/>
<path fill-rule="evenodd" clip-rule="evenodd" d="M169.051 122.3C169.46 126.395 170.278 130.49 175.186 129.671C176.822 128.033 176.822 122.71 175.186 121.072C172.323 120.663 170.278 121.072 169.051 122.3Z" fill="#FFF61B"/>
<path fill-rule="evenodd" clip-rule="evenodd" d="M106.065 11.3362C122.425 16.2497 142.466 24.0295 147.783 35.9039C135.922 28.943 120.789 25.2579 102.385 24.8484C117.926 33.0376 140.83 33.8566 147.783 50.6445C142.875 47.7783 141.648 51.4634 139.194 54.3297C128.151 37.5417 89.2966 33.4471 70.4828 45.731C86.0247 26.0768 120.789 35.9039 137.967 46.9594C109.746 9.6983 47.988 37.9512 43.489 77.669C45.125 49.8256 61.8938 37.1323 81.5257 27.3052C68.0288 26.4862 56.1679 35.9039 50.8509 42.0458C18.9492 77.669 36.945 128.852 85.2067 139.088C142.875 151.372 178.867 95.2759 158.826 51.8729C162.916 27.7146 132.65 9.6983 106.065 11.3362ZM143.284 59.2432C144.92 57.1959 149.828 60.8811 150.646 55.5581C151.873 55.9675 152.691 56.7864 153.1 58.0148C153.509 62.1095 149.419 61.7 148.192 64.1568C153.918 78.8974 146.556 107.15 132.241 113.292C144.511 103.875 153.509 77.2596 143.284 59.2432ZM43.489 86.6772C46.761 94.0475 48.3969 103.056 53.3049 108.788C48.8059 107.56 43.898 96.0948 43.489 86.6772ZM55.7589 114.93C64.3478 118.615 76.6177 129.261 91.3416 130.899C76.6177 133.765 65.5748 121.481 55.7589 114.93ZM96.2496 117.387C75.3907 116.977 59.4399 97.7327 60.6669 75.6217C65.1658 90.3624 72.1188 102.646 90.1146 103.875C89.2966 105.103 87.2516 105.103 87.6606 107.56C113.018 121.891 137.967 89.134 125.697 65.7946C122.425 84.2204 119.153 102.646 99.9305 105.103C105.247 98.5516 78.6627 96.9137 77.8447 79.3069C77.4357 67.023 88.0696 56.7864 99.9305 53.5107C80.7077 48.1877 73.3458 65.3851 70.4828 80.5352C59.0309 53.9202 89.2966 43.2742 112.2 47.3688C111.791 46.1404 110.973 45.3215 109.746 44.9121C157.599 49.0067 138.376 118.206 96.2496 117.387ZM102.385 132.127C108.519 125.167 115.881 126.804 126.924 123.529C148.192 117.387 153.918 99.78 155.145 70.7082C160.462 103.875 139.194 132.127 102.385 132.127Z" fill="#FFF61B"/>
</svg>
