<svg width="100" height="90" viewBox="0 0 100 90" fill="none" xmlns="http://www.w3.org/2000/svg">
<path fill-rule="evenodd" clip-rule="evenodd" d="M37.9612 89.042C36.4136 88.5993 36.1925 85.5005 37.298 84.3938C38.8456 84.1725 39.951 84.3938 40.6143 85.0578C41.0565 87.4926 40.1721 88.8207 37.9612 89.042Z" fill="#FF5500"/>
<path fill-rule="evenodd" clip-rule="evenodd" d="M49.9002 81.7376C26.9068 83.951 8.33522 62.2595 10.1039 38.576C10.7672 28.3942 16.7366 19.9833 24.6959 17.9912C1.70251 40.568 23.1482 92.5833 60.5125 76.4254C58.7438 81.2949 54.1009 81.2949 49.9002 81.7376Z" fill="#FF5500"/>
<path fill-rule="evenodd" clip-rule="evenodd" d="M93.2338 62.481C91.6862 60.4889 93.0127 57.3901 95.2236 57.1688C95.4447 57.6114 95.8869 57.8328 96.5501 57.8328C97.4345 59.8249 96.7713 60.7102 95.8869 62.481C95.0025 62.481 94.1182 62.481 93.2338 62.481Z" fill="#FF5500"/>
<path fill-rule="evenodd" clip-rule="evenodd" d="M59.407 61.1529C59.407 60.2675 59.407 59.3821 59.407 58.4968C61.3969 57.8327 61.3969 57.8327 63.3867 58.4968C63.3867 59.3821 63.3867 60.2675 63.3867 61.1529C62.5023 62.0382 60.0703 62.0382 59.407 61.1529Z" fill="#FF5500"/>
<path fill-rule="evenodd" clip-rule="evenodd" d="M65.3764 57.8328C67.1452 57.6115 68.2506 58.0541 68.0295 59.8249C67.1452 59.8249 67.1452 60.7102 66.0397 60.4889C65.8186 59.6035 64.9343 59.1608 65.3764 57.8328Z" fill="#FF5500"/>
<path fill-rule="evenodd" clip-rule="evenodd" d="M4.1345 52.9631C-4.70911 49.8644 3.25014 63.1449 4.1345 52.9631V52.9631Z" fill="#FF5500"/>
<path fill-rule="evenodd" clip-rule="evenodd" d="M43.9307 43.6669C44.815 40.1254 52.9954 34.8132 57.1961 35.0346C63.8288 35.4772 66.7029 44.3309 65.1553 52.2992C55.4273 60.4889 41.2776 54.9553 43.9307 43.6669ZM58.7437 40.3468C48.1314 38.1334 44.5939 48.5364 51.4477 52.9632C49.9001 49.6431 49.679 42.1175 55.4274 42.3388C58.3015 42.3388 62.5022 46.987 58.0804 50.3071C63.3866 52.2992 60.7335 42.5602 58.7437 40.3468Z" fill="#FF5500"/>
<path fill-rule="evenodd" clip-rule="evenodd" d="M94.5603 44.9951C87.2644 25.517 79.3051 6.48167 53.4376 7.14569C48.7947 7.14569 44.594 9.80179 39.5089 8.47374C50.7845 1.16946 72.2302 5.37495 79.9684 13.1219C74.6622 7.58837 68.9139 3.16154 60.0703 2.49752C42.162 0.948128 29.1177 12.4579 17.621 18.4341C28.4544 -1.92932 75.1044 -9.2336 85.4956 16.442C83.2847 17.1061 82.6215 12.6792 81.516 14.45C87.9277 21.5329 96.3291 33.928 94.5603 44.9951Z" fill="#FF5500"/>
<path fill-rule="evenodd" clip-rule="evenodd" d="M97.8767 31.0503C96.108 29.7222 96.3291 27.0661 99.2032 27.0661C99.8665 27.7302 100.088 28.8369 99.8665 30.3863C98.9821 30.3863 98.3189 30.829 97.8767 31.0503Z" fill="#FF5500"/>
<path fill-rule="evenodd" clip-rule="evenodd" d="M91.244 23.0823C91.4651 20.8689 91.9073 18.6555 94.5604 19.0982C95.4447 19.9835 95.4447 22.861 94.5604 23.7463C93.0127 23.9677 91.9073 23.7463 91.244 23.0823Z" fill="#FF5500"/>
<path fill-rule="evenodd" clip-rule="evenodd" d="M57.1961 83.0657C66.0397 80.4096 76.8731 76.2041 79.7473 69.7852C73.3357 73.548 65.1553 75.5401 55.2063 75.7614C63.6077 71.3346 75.9887 70.8919 79.7473 61.8169C77.0942 63.3663 76.4309 61.3742 75.1044 59.8248C69.1349 68.8998 48.1314 71.1133 37.9612 64.473C46.3627 75.0974 65.1553 69.7852 74.4411 63.809C59.1859 83.9511 25.8013 68.6785 23.3693 47.2084C24.2537 62.2596 33.3183 69.1212 43.9307 74.4334C36.6347 74.8761 30.2231 69.7852 27.3489 66.4651C10.1039 47.2084 19.8318 19.5406 45.9205 14.0071C77.0942 7.36685 96.5501 37.6907 85.7167 61.1529C87.9276 74.212 71.5669 83.9511 57.1961 83.0657ZM77.3153 57.1687C78.1996 58.2754 80.8527 56.2834 81.2949 59.1608C81.9582 58.9395 82.4004 58.4968 82.6215 57.8328C82.8425 55.6193 80.6316 55.8407 79.9683 54.5126C83.0636 46.5443 79.084 31.2718 71.3458 27.9516C77.9785 33.0425 82.8425 47.4297 77.3153 57.1687ZM23.3693 42.3388C25.138 38.3547 26.0224 33.4852 28.6754 30.3864C26.2434 31.0504 23.5904 37.248 23.3693 42.3388ZM30.002 27.0663C34.6449 25.0742 41.2776 19.3193 49.2368 18.4339C41.2776 16.8845 35.3082 23.5248 30.002 27.0663ZM51.8899 25.7382C40.6143 25.9596 31.9918 36.3626 32.6551 48.3151C35.0871 40.3468 38.8456 33.7065 48.5736 33.0425C48.1314 32.3785 47.0259 32.3785 47.247 31.0504C60.9546 23.3035 74.4411 41.0108 67.8084 53.6273C66.0397 43.6669 64.271 33.7065 53.8797 32.3785C56.7539 35.9199 42.383 36.8053 41.9409 46.323C41.7198 52.9632 47.4681 58.4968 53.8797 60.2675C43.4885 63.145 39.5089 53.8486 37.9612 45.659C31.7707 60.0462 48.1314 65.8011 60.5124 63.5876C60.2913 64.2517 59.8492 64.6943 59.1859 64.9157C85.0534 62.7023 74.6622 25.2955 51.8899 25.7382ZM55.2063 17.7699C58.5226 21.5327 62.5022 20.6474 68.4717 22.4181C79.9684 25.7382 83.0636 35.2559 83.7269 50.9712C86.6011 33.0425 75.1044 17.7699 55.2063 17.7699Z" fill="#FF5500"/>
</svg>
