<svg width="33" height="32" viewBox="0 0 33 32" fill="none" xmlns="http://www.w3.org/2000/svg">
<path d="M16.4558 10C15.2691 10 14.1091 10.3519 13.1224 11.0112C12.1357 11.6705 11.3667 12.6075 10.9125 13.7039C10.4584 14.8003 10.3396 16.0067 10.5711 17.1705C10.8026 18.3344 11.3741 19.4035 12.2132 20.2426C13.0523 21.0818 14.1214 21.6532 15.2853 21.8847C16.4492 22.1162 17.6556 21.9974 18.7519 21.5433C19.8483 21.0892 20.7853 20.3201 21.4446 19.3334C22.1039 18.3467 22.4558 17.1867 22.4558 16C22.4542 14.4092 21.8215 12.884 20.6966 11.7592C19.5718 10.6343 18.0466 10.0017 16.4558 10ZM16.4558 20C15.6647 20 14.8913 19.7654 14.2335 19.3259C13.5757 18.8864 13.063 18.2616 12.7603 17.5307C12.4575 16.7998 12.3783 15.9956 12.5327 15.2196C12.687 14.4437 13.068 13.731 13.6274 13.1716C14.1868 12.6122 14.8995 12.2312 15.6754 12.0769C16.4514 11.9225 17.2556 12.0017 17.9865 12.3045C18.7174 12.6072 19.3422 13.1199 19.7817 13.7777C20.2212 14.4355 20.4558 15.2089 20.4558 16C20.4558 17.0609 20.0344 18.0783 19.2842 18.8284C18.5341 19.5786 17.5167 20 16.4558 20ZM22.4558 3H10.4558C8.5999 3.00199 6.82058 3.74012 5.50826 5.05245C4.19593 6.36477 3.4578 8.14409 3.45581 10V22C3.4578 23.8559 4.19593 25.6352 5.50826 26.9476C6.82058 28.2599 8.5999 28.998 10.4558 29H22.4558C24.3117 28.998 26.091 28.2599 27.4034 26.9476C28.7157 25.6352 29.4538 23.8559 29.4558 22V10C29.4538 8.14409 28.7157 6.36477 27.4034 5.05245C26.091 3.74012 24.3117 3.00199 22.4558 3ZM27.4558 22C27.4558 23.3261 26.929 24.5979 25.9913 25.5355C25.0537 26.4732 23.7819 27 22.4558 27H10.4558C9.12973 27 7.85796 26.4732 6.92028 25.5355C5.98259 24.5979 5.45581 23.3261 5.45581 22V10C5.45581 8.67392 5.98259 7.40215 6.92028 6.46447C7.85796 5.52678 9.12973 5 10.4558 5H22.4558C23.7819 5 25.0537 5.52678 25.9913 6.46447C26.929 7.40215 27.4558 8.67392 27.4558 10V22ZM24.4558 9.5C24.4558 9.79667 24.3678 10.0867 24.203 10.3334C24.0382 10.58 23.8039 10.7723 23.5298 10.8858C23.2557 10.9994 22.9541 11.0291 22.6632 10.9712C22.3722 10.9133 22.1049 10.7704 21.8952 10.5607C21.6854 10.3509 21.5425 10.0836 21.4846 9.79264C21.4268 9.50166 21.4565 9.20006 21.57 8.92597C21.6835 8.65189 21.8758 8.41762 22.1225 8.2528C22.3691 8.08797 22.6591 8 22.9558 8C23.3536 8 23.7352 8.15804 24.0165 8.43934C24.2978 8.72064 24.4558 9.10218 24.4558 9.5Z" fill="white"/>
</svg>
