<svg width="206" height="51" viewBox="0 0 206 51" fill="none" xmlns="http://www.w3.org/2000/svg">
<path fill-rule="evenodd" clip-rule="evenodd" d="M18.1402 47.3827C17.5388 48.3445 17.4186 49.7871 15.374 49.0658C14.2916 47.6232 15.8551 46.6614 16.3361 45.8199C-0.982439 36.2023 2.50533 1.45877 25.5968 0.737456C35.3385 0.376797 44.9599 5.54625 47.4855 13.7212C40.3897 9.99438 36.5412 4.46426 26.9197 4.22382C13.8105 3.98338 5.75256 14.9234 6.47417 27.0656C6.95524 36.3225 15.1335 46.6614 24.3941 48.7051C42.9154 52.6724 52.5368 33.6777 49.8909 17.3278C56.2651 23.5792 51.3341 37.6449 46.2829 43.5357C40.2695 50.3882 27.6413 53.6342 18.1402 47.3827Z" fill="#FFF61B"/>
<path fill-rule="evenodd" clip-rule="evenodd" d="M10.0822 45.6996C10.0822 44.9783 9.12007 45.2187 9.48087 44.1368C11.0444 43.4154 11.8862 45.339 10.0822 45.6996Z" fill="#FFF61B"/>
<path fill-rule="evenodd" clip-rule="evenodd" d="M3.34721 40.4099C2.74587 38.9673 3.58774 37.4044 5.39176 37.5246C6.11337 39.0875 5.51203 41.011 3.34721 40.4099Z" fill="#FFF61B"/>
<path fill-rule="evenodd" clip-rule="evenodd" d="M4.06882 35.2405C3.46748 35.1203 3.82829 34.2787 3.82829 33.6776C6.47418 31.7541 6.47418 37.4045 4.06882 35.2405Z" fill="#FFF61B"/>
<path fill-rule="evenodd" clip-rule="evenodd" d="M0.0999738 17.2075C0.941849 17.448 0.941852 16.6064 2.02426 16.9671C4.06882 18.8906 -0.741902 20.8141 0.0999738 17.2075Z" fill="#FFF61B"/>
<path fill-rule="evenodd" clip-rule="evenodd" d="M24.2738 44.7378C27.4008 44.257 32.3318 46.0603 34.7371 43.8963C17.5388 45.4592 7.79711 26.4644 16.5767 13.7211C9.12005 18.2895 9.84166 38.6066 18.6212 38.3662C18.501 41.2515 20.4252 42.3334 22.3495 44.1367C19.5834 43.7761 18.501 41.8526 16.2159 41.1312C6.47416 31.8743 7.67684 11.0763 21.2671 8.79212C24.8752 8.19103 27.7616 9.273 31.2494 9.39322C55.9043 10.8359 47.6058 54.4756 24.2738 44.7378ZM26.9197 15.8851C13.6902 15.1638 18.8618 37.164 29.5656 38.0055C34.3763 38.3662 36.5411 34.1585 38.2249 30.071C36.0601 32.9563 34.4966 36.082 30.4075 35.8416C25.5968 35.6011 19.2226 28.3879 20.0644 23.2185C20.6658 19.131 24.9954 16.1255 31.971 18.0491C32.8128 17.448 28.9643 16.0053 26.9197 15.8851ZM30.8886 29.5901C32.6926 27.7869 30.7683 25.6229 29.3251 24.6611C25.4765 25.3825 27.1602 29.8306 30.8886 29.5901ZM25.1157 21.0545C23.913 21.6556 23.1914 22.6174 22.3495 23.4589C21.1468 30.4317 27.1602 34.0383 32.452 33.0765C26.5589 33.5574 21.0266 27.306 25.1157 21.0545ZM38.1046 21.1748C36.3006 20.3332 35.2182 18.8906 33.0534 18.2895C36.0601 19.8523 37.2628 22.9781 38.4654 26.1038C38.4654 26.9453 37.8641 30.071 38.5857 29.1093C39.187 25.8633 38.9465 23.2185 38.1046 21.1748ZM38.9465 14.4425C40.8708 16.9671 40.8708 20.6939 41.2316 25.0218C42.5545 25.0218 42.6748 24.6611 43.8775 25.142C43.7572 20.3332 41.3519 17.3277 38.9465 14.4425ZM39.187 33.4372C37.383 36.5629 34.0155 39.929 29.4453 39.4482C27.1602 39.2077 24.2738 36.8033 21.9887 34.8798C14.7726 28.7486 15.4943 11.1965 28.6035 13.7211C28.7237 13.7211 28.844 13.7211 28.9643 13.7211C30.7683 13.4807 26.5589 12.6392 24.9954 12.7594C23.1914 12.8796 20.9063 13.7211 20.0644 14.3222C8.51872 21.7759 17.178 40.4099 29.8061 42.093C38.3452 43.2952 42.0735 35.2405 43.7572 27.0655C40.51 27.6666 40.51 31.2732 39.187 33.4372Z" fill="#FFF61B"/>
<path d="M74.2036 21.2197V7.91996H76.6356V13.2969L81.5565 7.91996H84.5584L79.6565 13.2019L84.6914 21.2197H81.7085L77.9085 15.0638L76.6356 16.4508V21.2197H74.2036ZM85.5017 21.2197L90.3656 7.91996H93.1016L97.9655 21.2197H95.3815L94.3176 18.1418H89.1307L88.0477 21.2197H85.5017ZM89.7956 16.2418H93.6526L91.7146 10.7129L89.7956 16.2418ZM99.6787 21.2197V7.91996H102.567L106.804 16.3558L110.984 7.91996H113.871V21.2197H111.44V12.0429L107.735 19.3198H105.816L102.111 12.0429V21.2197H99.6787ZM116.452 21.2197V7.91996H121.373C122.437 7.91996 123.317 8.09729 124.014 8.45195C124.71 8.80661 125.23 9.29427 125.572 9.91493C125.914 10.5356 126.085 11.2322 126.085 12.0049C126.085 12.7395 125.92 13.4172 125.591 14.0379C125.261 14.6458 124.748 15.1398 124.052 15.5198C123.355 15.8872 122.462 16.0708 121.373 16.0708H118.884V21.2197H116.452ZM118.884 14.0949H121.221C122.069 14.0949 122.677 13.9112 123.045 13.5439C123.425 13.1639 123.615 12.6509 123.615 12.0049C123.615 11.3462 123.425 10.8332 123.045 10.4659C122.677 10.0859 122.069 9.89593 121.221 9.89593H118.884V14.0949ZM127.993 21.2197V7.91996H136.676V9.87693H130.425V13.5249H136.106V15.4248H130.425V19.2628H136.676V21.2197H127.993ZM138.977 21.2197V7.91996H141.409V19.3198H147.299V21.2197H138.977ZM149.442 21.2197V7.91996H152.329L156.566 16.3558L160.746 7.91996H163.634V21.2197H161.202V12.0429L157.497 19.3198H155.578L151.873 12.0429V21.2197H149.442ZM165.36 21.2197L170.224 7.91996H172.96L177.823 21.2197H175.24L174.176 18.1418H168.989L167.906 21.2197H165.36ZM169.654 16.2418H173.511L171.573 10.7129L169.654 16.2418ZM179.537 21.2197V7.91996H181.969L188.22 17.2868V7.91996H190.651V21.2197H188.22L181.969 11.8719V21.2197H179.537ZM193.23 21.2197V7.91996H195.662L201.913 17.2868V7.91996H204.345V21.2197H201.913L195.662 11.8719V21.2197H193.23Z" fill="white"/>
<path d="M73.3486 43.2197L78.2125 29.92H80.9485L85.8124 43.2197H83.2284L82.1645 40.1418H76.9775L75.8946 43.2197H73.3486ZM77.6425 38.2418H81.4995L79.5615 32.7129L77.6425 38.2418ZM99.2477 43.4477C97.905 43.4477 96.7524 43.1627 95.7897 42.5927C94.8271 42.0101 94.0861 41.2058 93.5668 40.1798C93.0475 39.1411 92.7878 37.9442 92.7878 36.5888C92.7878 35.2335 93.0475 34.0366 93.5668 32.9979C94.0861 31.9593 94.8271 31.1486 95.7897 30.566C96.7524 29.9833 97.905 29.692 99.2477 29.692C100.844 29.692 102.148 30.091 103.162 30.8889C104.188 31.6743 104.827 32.7826 105.081 34.2139H102.402C102.237 33.4919 101.882 32.9282 101.338 32.5229C100.806 32.1049 100.096 31.8959 99.2097 31.8959C97.981 31.8959 97.0184 32.3139 96.3217 33.1499C95.6251 33.9859 95.2767 35.1322 95.2767 36.5888C95.2767 38.0455 95.6251 39.1918 96.3217 40.0278C97.0184 40.8511 97.981 41.2628 99.2097 41.2628C100.096 41.2628 100.806 41.0728 101.338 40.6928C101.882 40.3001 102.237 39.7618 102.402 39.0778H105.081C104.827 40.4458 104.188 41.5161 103.162 42.2887C102.148 43.0614 100.844 43.4477 99.2477 43.4477ZM112.671 43.2197L117.535 29.92H120.271L125.135 43.2197H122.551L121.487 40.1418H116.3L115.217 43.2197H112.671ZM116.965 38.2418H120.822L118.884 32.7129L116.965 38.2418ZM133.308 43.2197V29.92H137.849C139.407 29.92 140.686 30.1986 141.687 30.7559C142.7 31.3006 143.448 32.0733 143.929 33.0739C144.423 34.0619 144.67 35.2272 144.67 36.5698C144.67 37.9125 144.423 39.0841 143.929 40.0848C143.448 41.0728 142.7 41.8454 141.687 42.4027C140.686 42.9474 139.407 43.2197 137.849 43.2197H133.308ZM135.74 41.1298H137.735C138.85 41.1298 139.73 40.9524 140.376 40.5978C141.022 40.2304 141.484 39.7111 141.763 39.0398C142.042 38.3558 142.181 37.5325 142.181 36.5698C142.181 35.6199 142.042 34.8029 141.763 34.1189C141.484 33.4349 141.022 32.9092 140.376 32.5419C139.73 32.1746 138.85 31.9909 137.735 31.9909H135.74V41.1298ZM153.276 43.2197V29.92H161.958V31.8769H155.708V35.5249H161.388V37.4248H155.708V41.2628H161.958V43.2197H153.276ZM170.72 43.2197V29.92H173.608L177.845 38.3558L182.024 29.92H184.912V43.2197H182.48V34.0429L178.776 41.3198H176.857L173.152 34.0429V43.2197H170.72ZM197.392 43.2197V38.4888L192.927 29.92H195.682L198.627 36.0569L201.553 29.92H204.269L199.824 38.4888V43.2197H197.392Z" fill="white"/>
</svg>
