<svg width="25" height="28" viewBox="0 0 25 28" fill="none" xmlns="http://www.w3.org/2000/svg">
<path d="M22.5 9.5H8.5V6.5C8.5 5.43913 8.92143 4.42172 9.67157 3.67157C10.4217 2.92143 11.4391 2.5 12.5 2.5C14.4213 2.5 16.15 3.875 16.52 5.69875C16.5749 5.95646 16.7294 6.18207 16.9497 6.32655C17.1701 6.47103 17.4385 6.5227 17.6968 6.47032C17.955 6.41795 18.1822 6.26577 18.3288 6.04686C18.4755 5.82795 18.5298 5.56 18.48 5.30125C17.915 2.51875 15.4 0.5 12.5 0.5C10.9092 0.501654 9.38405 1.13433 8.25919 2.25919C7.13433 3.38405 6.50165 4.90921 6.5 6.5V9.5H2.5C1.96957 9.5 1.46086 9.71071 1.08579 10.0858C0.710714 10.4609 0.5 10.9696 0.5 11.5V25.5C0.5 26.0304 0.710714 26.5391 1.08579 26.9142C1.46086 27.2893 1.96957 27.5 2.5 27.5H22.5C23.0304 27.5 23.5391 27.2893 23.9142 26.9142C24.2893 26.5391 24.5 26.0304 24.5 25.5V11.5C24.5 10.9696 24.2893 10.4609 23.9142 10.0858C23.5391 9.71071 23.0304 9.5 22.5 9.5ZM22.5 25.5H2.5V11.5H22.5V25.5ZM12.5 13.5C11.6595 13.5003 10.8472 13.803 10.2115 14.3529C9.57579 14.9027 9.1592 15.663 9.03785 16.4947C8.9165 17.3264 9.0985 18.174 9.55058 18.8825C10.0027 19.5911 10.6946 20.1133 11.5 20.3538V22.5C11.5 22.7652 11.6054 23.0196 11.7929 23.2071C11.9804 23.3946 12.2348 23.5 12.5 23.5C12.7652 23.5 13.0196 23.3946 13.2071 23.2071C13.3946 23.0196 13.5 22.7652 13.5 22.5V20.3538C14.3054 20.1133 14.9973 19.5911 15.4494 18.8825C15.9015 18.174 16.0835 17.3264 15.9622 16.4947C15.8408 15.663 15.4242 14.9027 14.7885 14.3529C14.1528 13.803 13.3405 13.5003 12.5 13.5ZM12.5 18.5C12.2033 18.5 11.9133 18.412 11.6666 18.2472C11.42 18.0824 11.2277 17.8481 11.1142 17.574C11.0006 17.2999 10.9709 16.9983 11.0288 16.7074C11.0867 16.4164 11.2296 16.1491 11.4393 15.9393C11.6491 15.7296 11.9164 15.5867 12.2074 15.5288C12.4983 15.4709 12.7999 15.5007 13.074 15.6142C13.3481 15.7277 13.5824 15.92 13.7472 16.1666C13.912 16.4133 14 16.7033 14 17C14 17.3978 13.842 17.7794 13.5607 18.0607C13.2794 18.342 12.8978 18.5 12.5 18.5Z" fill="#1E3E7C"/>
</svg>
