<svg width="33" height="32" viewBox="0 0 33 32" fill="none" xmlns="http://www.w3.org/2000/svg">
<path d="M16.4558 3C13.8847 3 11.3712 3.76244 9.2334 5.1909C7.09556 6.61935 5.42932 8.64968 4.44538 11.0251C3.46144 13.4006 3.204 16.0144 3.70561 18.5362C4.20722 21.0579 5.44535 23.3743 7.26343 25.1924C9.08151 27.0105 11.3979 28.2486 13.9196 28.7502C16.4414 29.2518 19.0553 28.9944 21.4307 28.0104C23.8061 27.0265 25.8365 25.3603 27.2649 23.2224C28.6934 21.0846 29.4558 18.5712 29.4558 16C29.4518 12.5534 28.0809 9.24911 25.6438 6.812C23.2067 4.37488 19.9024 3.00397 16.4558 3ZM27.4083 15H22.4296C22.2058 10.4363 20.4483 7.20875 19.0071 5.3C21.2449 5.83739 23.2584 7.06171 24.7653 8.80127C26.2722 10.5408 27.1968 12.7084 27.4096 15H27.4083ZM12.4846 17H20.4271C20.1383 22.2013 17.6483 25.3888 16.4558 26.625C15.2621 25.3875 12.7733 22.2 12.4846 17ZM12.4846 15C12.7733 9.79875 15.2633 6.61125 16.4558 5.375C17.6496 6.61625 20.1383 9.80375 20.4271 15H12.4846ZM13.9046 5.3C12.4633 7.20875 10.7058 10.4363 10.4821 15H5.50207C5.71481 12.7084 6.63945 10.5408 8.14632 8.80127C9.65319 7.06171 11.6667 5.83739 13.9046 5.3ZM5.50207 17H10.4821C10.7096 21.5637 12.4633 24.7913 13.9046 26.7C11.6667 26.1626 9.65319 24.9383 8.14632 23.1987C6.63945 21.4592 5.71481 19.2916 5.50207 17ZM19.0021 26.7C20.4433 24.7913 22.1971 21.5637 22.4246 17H27.4046C27.1921 19.2909 26.2682 21.458 24.7623 23.1975C23.2564 24.937 21.244 26.1617 19.0071 26.7H19.0021Z" fill="white"/>
</svg>
