<svg width="33" height="32" viewBox="0 0 33 32" fill="none" xmlns="http://www.w3.org/2000/svg">
<path d="M21.0108 15.1675L15.0108 11.1675C14.8602 11.067 14.6851 11.0093 14.5042 11.0005C14.3233 10.9918 14.1435 11.0323 13.9838 11.1177C13.8242 11.2032 13.6907 11.3304 13.5977 11.4858C13.5047 11.6412 13.4557 11.8189 13.4558 12V20C13.4557 20.1811 13.5047 20.3588 13.5977 20.5142C13.6907 20.6696 13.8242 20.7968 13.9838 20.8823C14.1435 20.9677 14.3233 21.0082 14.5042 20.9995C14.6851 20.9907 14.8602 20.933 15.0108 20.8325L21.0108 16.8325C21.148 16.7412 21.2605 16.6175 21.3383 16.4722C21.4161 16.327 21.4568 16.1648 21.4568 16C21.4568 15.8352 21.4161 15.673 21.3383 15.5278C21.2605 15.3826 21.148 15.2588 21.0108 15.1675ZM15.4558 18.1313V13.875L18.6533 16L15.4558 18.1313ZM29.7471 8.69C29.6293 8.22919 29.4036 7.80298 29.0887 7.44654C28.7738 7.09011 28.3786 6.81366 27.9358 6.64C23.6508 4.985 16.8308 5 16.4558 5C16.0808 5 9.26081 4.985 4.97581 6.64C4.53301 6.81366 4.13785 7.09011 3.82293 7.44654C3.508 7.80298 3.28234 8.22919 3.16456 8.69C2.84081 9.9375 2.45581 12.2175 2.45581 16C2.45581 19.7825 2.84081 22.0625 3.16456 23.31C3.28217 23.771 3.50775 24.1975 3.82268 24.5542C4.13762 24.9108 4.53287 25.1875 4.97581 25.3613C9.08081 26.945 15.5058 27 16.3733 27H16.5383C17.4058 27 23.8346 26.945 27.9358 25.3613C28.3787 25.1875 28.774 24.9108 29.0889 24.5542C29.4039 24.1975 29.6295 23.771 29.7471 23.31C30.0708 22.06 30.4558 19.7825 30.4558 16C30.4558 12.2175 30.0708 9.9375 29.7471 8.69ZM27.8108 22.815C27.7727 22.9684 27.6988 23.1105 27.5952 23.2298C27.4915 23.3491 27.3611 23.4421 27.2146 23.5013C23.2583 25.0288 16.5296 25.0013 16.4646 25.0013H16.4558C16.3883 25.0013 9.66456 25.0263 5.70581 23.5013C5.55927 23.4421 5.42884 23.3491 5.3252 23.2298C5.22155 23.1105 5.14766 22.9684 5.10956 22.815C4.80581 21.6738 4.45581 19.5713 4.45581 16C4.45581 12.4288 4.80581 10.3263 5.10081 9.19125C5.1382 9.03698 5.21177 8.89382 5.31546 8.77362C5.41914 8.65342 5.54994 8.55963 5.69706 8.5C9.51206 7.02625 15.9046 7 16.4283 7H16.4621C16.5296 7 23.2596 6.9775 27.2121 8.5C27.3586 8.55915 27.489 8.65217 27.5927 8.77146C27.6963 8.89074 27.7702 9.03289 27.8083 9.18625C28.1058 10.3263 28.4558 12.4288 28.4558 16C28.4558 19.5713 28.1058 21.6738 27.8108 22.8088V22.815Z" fill="white"/>
</svg>
